<?xml version="1.0" encoding="UTF-8"?><svg id="Layer_2" xmlns="http://www.w3.org/2000/svg" viewBox="0 0 40 40"><defs><style>.cls-1{fill:#fff;}.cls-2{fill:#453300;}</style></defs><g id="Layer_1-2"><g><circle class="cls-2" cx="20" cy="20" r="20"/><g><path class="cls-1" d="m35.84,21.87c.45.08.74.51.65.95-.05.3-.26.53-.53.62-.14.05-.28.06-.43.03l-4.04-.74c-.45-.08-.74-.52-.66-.96.09-.45.52-.73.96-.65l4.04.75Z"/><path class="cls-1" d="m35.74,14.59c.15.44-.08.9-.51,1.05l-3.87,1.37c-.43.16-.9-.07-1.05-.5s.07-.9.51-1.05l3.87-1.37c.43-.15.89.07,1.05.5Z"/><path class="cls-1" d="m31.15,7.71c.35.3.39.81.09,1.16l-2.66,3.12c-.1.12-.23.2-.36.24-.27.1-.58.05-.8-.15-.35-.29-.39-.81-.1-1.15l2.67-3.12c.3-.35.82-.39,1.16-.1Z"/><path class="cls-1" d="m29.7,24.14l-.28-.77-4.12-11.62-.28-.77c-.3-.86-1.24-1.31-2.09-1-.69.24-1.11.9-1.09,1.6L5.36,22.28c-.22-.18-.51-.25-.77-.15-.44.15-.65.62-.51,1.05l.42,1.16.81,2.32.42,1.16c.15.44.62.65,1.05.51.28-.1.46-.34.52-.61l1.3-.14c.53,2.03,2.44,3.46,4.6,3.28.39-.03.77-.11,1.13-.24.71-.25,1.36-.69,1.87-1.29.64-.75.98-1.69,1.02-2.66l9.62-1.01c.42.56,1.16.8,1.85.57.85-.31,1.3-1.24,1-2.1Zm-14.75,4.15c-.49.56-1.15.89-1.88.95-1.27.1-2.39-.68-2.81-1.83l5.32-.56c-.07.53-.28,1.01-.62,1.43Z"/></g></g></g></svg>