<?xml version="1.0" encoding="UTF-8"?><svg id="Layer_2" xmlns="http://www.w3.org/2000/svg" viewBox="0 0 40 40"><defs><style>.cls-1{fill:#fff;}.cls-2{fill:#453300;}</style></defs><g id="Layer_1-2"><g><circle class="cls-2" cx="20" cy="20" r="20"/><path class="cls-1" d="m32.2,12.62c-1.59,0-3.06-.53-4.23-1.41-1.35-1.02-2.32-2.51-2.66-4.23-.09-.42-.13-.86-.14-1.32h-4.54v19.2c0,1.82-1.19,3.36-2.83,3.9-.48.16-.99.23-1.52.2-.69-.04-1.32-.24-1.88-.58-1.19-.71-1.99-1.99-2.01-3.46-.03-2.3,1.82-4.17,4.12-4.17.45,0,.89.08,1.29.21v-4.6c-.43-.07-.86-.1-1.31-.1-2.51,0-4.86,1.04-6.54,2.93-1.27,1.42-2.03,3.24-2.15,5.14-.15,2.5.76,4.87,2.53,6.62.26.26.53.49.82.72,1.52,1.17,3.38,1.81,5.34,1.81.44,0,.88-.03,1.31-.1,1.83-.27,3.51-1.11,4.85-2.43,1.64-1.62,2.54-3.76,2.55-6.05l-.02-10.15c.78.6,1.63,1.1,2.55,1.48,1.42.6,2.94.9,4.49.9v-4.52s-.01,0-.01,0h0Z"/></g></g></svg>