<?xml version="1.0" encoding="UTF-8"?><svg id="Layer_2" xmlns="http://www.w3.org/2000/svg" viewBox="0 0 40 40"><defs><style>.cls-1{fill:#fff;}.cls-2{fill:#453300;}</style></defs><g id="Layer_1-2"><g><circle class="cls-2" cx="20" cy="20" r="20"/><path class="cls-1" d="m30.81,11.4c-2.59-2.08-6.68-2.44-6.86-2.45-.27-.02-.53.13-.64.38-.08.18-.15.36-.2.54,2.02.31,3.96,1.01,5.72,2.05.32.17.44.56.27.88s-.56.44-.88.27c-.03-.02-.06-.03-.08-.05-5.06-2.84-11.23-2.84-16.29,0-.32.17-.71.04-.88-.27-.15-.28-.07-.64.19-.83,1.76-1.04,3.7-1.74,5.72-2.05-.06-.18-.12-.37-.2-.54-.11-.25-.37-.4-.64-.38-.18.01-4.27.37-6.89,2.48-1.36,1.27-4.11,8.68-4.11,15.08,0,.11.03.22.09.32,1.89,3.32,7.05,4.19,8.23,4.23h.02c.21,0,.4-.1.53-.27l1.19-1.64c-1.8-.4-3.48-1.2-4.94-2.32-.26-.25-.27-.66-.02-.92.23-.24.62-.27.88-.05.04.04,3.06,2.6,8.99,2.6s8.96-2.57,8.99-2.6c.28-.23.69-.19.92.09.22.26.19.65-.06.89-1.46,1.12-3.14,1.92-4.94,2.32l1.19,1.64c.12.17.32.27.53.27h.02c1.18-.04,6.33-.91,8.23-4.23.06-.1.09-.21.09-.32,0-6.4-2.74-13.81-4.15-15.1Zm-15.04,12.5c-1.34-.1-2.36-1.26-2.28-2.6-.08-1.34.93-2.5,2.28-2.6,1.34.1,2.36,1.26,2.27,2.6.08,1.34-.93,2.5-2.27,2.6h0Zm8.45,0c-1.34-.1-2.36-1.26-2.28-2.6-.08-1.34.93-2.5,2.28-2.6,1.34.1,2.36,1.26,2.28,2.6.09,1.35-.93,2.51-2.28,2.6h0Z"/></g></g></svg>