<?xml version="1.0" encoding="UTF-8"?><svg id="Layer_2" xmlns="http://www.w3.org/2000/svg" viewBox="0 0 40 40"><defs><style>.cls-1{fill:#fff;}.cls-2{fill:#453300;}</style></defs><g id="Layer_1-2"><g><circle class="cls-2" cx="20" cy="20" r="20"/><path class="cls-1" d="m31.97,13.57c-.9.4-1.85.66-2.82.77,1.03-.61,1.79-1.58,2.16-2.72-.97.57-2.02.97-3.12,1.19-1.86-1.98-4.97-2.08-6.95-.22-1.28,1.2-1.82,2.99-1.42,4.7-3.95-.2-7.63-2.07-10.12-5.13-1.3,2.25-.64,5.12,1.52,6.56-.78-.02-1.55-.24-2.23-.62v.06c0,2.34,1.65,4.35,3.94,4.82-.42.11-.86.17-1.29.17-.31,0-.62-.03-.93-.09.64,2,2.49,3.37,4.59,3.41-1.74,1.37-3.89,2.1-6.1,2.1-.39,0-.78-.02-1.17-.07,2.25,1.44,4.86,2.21,7.53,2.21,7.67.05,13.92-6.12,13.98-13.79,0-.06,0-.13,0-.19,0-.21,0-.43-.01-.64.96-.7,1.79-1.56,2.45-2.54Z"/></g></g></svg>