<?xml version="1.0" encoding="UTF-8"?><svg id="Layer_2" xmlns="http://www.w3.org/2000/svg" viewBox="0 0 147.79 67.79"><defs><style>.cls-1{fill:#d4cdbe;}.cls-2{fill:#231f20;}</style></defs><g id="Layer_1-2"><g><g><polygon class="cls-1" points="140.57 .3 140.57 14.57 73.92 59.45 7.26 14.57 7.26 .3 140.57 .3"/><path class="cls-2" d="m140.53.25c-.48.44.06.69.06,1.34s.03.65.03,1.29-.03.65-.03,1.29-.03.65-.03,1.3.06.65.06,1.3-.03.65-.03,1.3-.14.65-.14,1.3.11.65.11,1.3.11.65.11,1.3-.09.65-.09,1.3.37.77.06,1.35-.57.38-1.1.73-.56.31-1.08.67-.56.31-1.09.66-.55.33-1.07.69-.51.38-1.04.73-.52.37-1.05.73-.48.43-1.01.79-.53.35-1.06.7-.58.28-1.11.63-.52.36-1.05.72-.48.42-1.01.78-.53.35-1.06.7-.61.23-1.14.59-.47.45-.99.81-.57.29-1.1.65-.45.47-.98.83-.54.34-1.07.7-.55.33-1.07.68-.6.24-1.13.59-.42.52-.94.87-.54.33-1.07.69-.5.39-1.03.75-.58.27-1.11.63-.57.29-1.1.65-.54.33-1.07.69-.52.37-1.04.73-.5.39-1.03.74-.47.44-1,.8-.6.24-1.13.6-.43.5-.96.85-.63.2-1.16.55-.54.35-1.06.7-.44.49-.97.85-.56.31-1.09.67-.57.3-1.1.66-.49.42-1.01.77-.52.37-1.05.72-.57.29-1.1.65-.54.34-1.07.69-.5.39-1.03.75-.56.31-1.09.67-.51.38-1.04.74-.48.42-1.01.78-.57.29-1.1.65-.47.45-1,.81-.52.37-1.05.73-.59.27-1.12.63-.49.42-1.02.78-.57.3-1.1.65-.54.34-1.07.7-.52.36-1.05.72-.5.41-1.02.76-.59.28-1.12.63-.55.33-1.08.68-.47.44-1,.8-.47.45-1,.81-.63.22-1.16.57-.49.42-1.02.77-.54.34-1.07.7-.57.3-1.11.66-.53.36-1.06.72-.49.42-1.03.78-.42.65-1.07.65-.54-.27-1.07-.62-.51-.38-1.04-.74-.53-.35-1.06-.71-.58-.27-1.11-.63-.53-.36-1.06-.71-.46-.45-.99-.81-.55-.32-1.08-.68-.57-.29-1.1-.65-.48-.43-1.01-.78-.53-.36-1.05-.71-.48-.43-1-.79-.57-.29-1.1-.65-.51-.38-1.04-.74-.55-.32-1.08-.68-.57-.29-1.1-.65-.46-.46-.99-.82-.61-.24-1.14-.6-.51-.38-1.03-.74-.55-.31-1.08-.67-.45-.48-.97-.83-.6-.24-1.13-.6-.48-.42-1.01-.78-.49-.42-1.02-.77-.57-.29-1.1-.65-.56-.31-1.09-.66-.5-.4-1.02-.76-.56-.31-1.09-.66-.44-.49-.96-.85-.53-.34-1.06-.7-.61-.23-1.14-.58-.53-.35-1.06-.7-.51-.38-1.04-.74-.52-.38-1.04-.73-.52-.37-1.05-.73-.51-.38-1.04-.74-.51-.39-1.03-.74-.6-.24-1.13-.6-.53-.35-1.06-.7-.42-.52-.95-.87-.58-.28-1.11-.64-.59-.27-1.12-.63-.5-.4-1.03-.75-.47-.44-1-.8-.62-.23-1.15-.58-.43-.51-.96-.87-.57-.3-1.1-.66-.55-.32-1.08-.68-.55-.33-1.08-.69-.53-.35-1.06-.71-.5-.4-1.03-.76-.51-.38-1.04-.73-.57-.3-1.09-.66-.56-.32-1.09-.68-.46-.46-.99-.81-.53-.36-1.06-.72-.55-.33-1.08-.69-.5-.41-1.03-.76-.6-.26-1.13-.62-.53-.35-1.06-.71-.51-.39-1.04-.75-.49-.43-1.02-.78-.55-.34-1.08-.7-.88-.06-1.18-.63.07-.69.07-1.34-.07-.65-.07-1.29.03-.65.03-1.29.14-.65.14-1.3.01-.65.01-1.3-.21-.65-.21-1.3.04-.65.04-1.3.09-.65.09-1.3-.05-.65-.05-1.3.01-.65.01-1.3.49-.85.01-1.3c-.51-.48-.7.03-1.39.03s-.7.04-1.4.04-.7,0-1.4,0-.7-.17-1.4-.17S.74-.21.23.26c-.48.44-.05.68-.05,1.33s-.02.65-.02,1.29.02.65.02,1.29,0,.65,0,1.3.05.65.05,1.3.04.65.04,1.3-.06.65-.06,1.3-.02.65-.02,1.3.03.65.03,1.3.11.65.11,1.3.03.65.03,1.3-.08.62-.08,1.24-.11.62-.11,1.24-.23.71.06,1.26.56.31,1.08.65.5.37,1.01.72.57.27,1.09.61.47.45.99.8.54.33,1.07.69.47.44,1,.8.58.28,1.11.64.59.26,1.12.61.42.51.95.87.63.21,1.16.57.44.49.97.84.54.33,1.07.69.49.41,1.02.76.56.31,1.09.66.52.37,1.04.73.6.25,1.13.6.5.39,1.03.75.55.33,1.08.68.54.33,1.07.69.48.43,1.01.79.52.37,1.04.72.58.27,1.11.63.52.37,1.04.72.47.45.99.8.6.25,1.13.6.48.43,1.01.79.52.37,1.05.73.54.34,1.07.7.58.28,1.11.63.53.35,1.06.7.48.42,1.01.78.48.42,1.01.78.62.22,1.14.58.54.34,1.06.7.52.36,1.05.72.43.5.96.86.58.29,1.11.65.56.31,1.09.67.54.34,1.07.7.51.39,1.04.74.51.38,1.04.74.48.42,1.01.78.57.29,1.1.65.52.37,1.05.73.61.24,1.14.6.51.39,1.04.74.45.47.98.82.55.33,1.08.69.54.34,1.07.7.57.3,1.1.66.52.38,1.05.73.56.32,1.09.67.48.42,1.01.78.54.34,1.06.7.58.28,1.11.63.42.52.95.88.59.27,1.12.63.51.39,1.04.75.6.26,1.13.61.51.39,1.04.74.5.41,1.03.77.52.36,1.05.72.52.37,1.06.73.58.28,1.12.64.56.32,1.1.68.5.41,1.03.77c.49.33.4.45.89.78s.49.33.98.66.58.19,1.07.52.35.6.94.6.52-.18,1-.51.46-.36.95-.69.48-.35.97-.68.49-.33.98-.65c.53-.36.57-.3,1.1-.65s.5-.39,1.03-.75.57-.29,1.1-.65.46-.45.99-.81.59-.27,1.11-.63.44-.49.97-.85.58-.28,1.11-.63.53-.36,1.05-.72.47-.44,1-.8.55-.32,1.08-.68.52-.37,1.05-.72.59-.27,1.11-.62.5-.4,1.03-.75.56-.31,1.09-.67.5-.4,1.03-.75.6-.25,1.13-.61.47-.44,1-.8.52-.36,1.05-.71.58-.28,1.1-.63.52-.36,1.05-.72.47-.44,1-.8.52-.37,1.05-.72.53-.35,1.06-.7.52-.37,1.05-.73.52-.36,1.05-.72.61-.24,1.13-.59.44-.49.96-.85.52-.36,1.05-.72.57-.29,1.1-.65.55-.32,1.08-.67.47-.43,1-.79.58-.27,1.11-.63.55-.33,1.08-.68.46-.47.99-.82.51-.38,1.04-.74.54-.34,1.07-.7.58-.28,1.11-.64.49-.41,1.02-.76.51-.39,1.04-.74.59-.27,1.12-.62.46-.46.99-.82.62-.23,1.15-.58.49-.42,1.02-.78.6-.24,1.13-.6.51-.39,1.04-.75.52-.37,1.05-.73.52-.37,1.05-.73.51-.38,1.04-.74.48-.43,1.01-.79.56-.32,1.08-.67.51-.37,1.04-.73.55-.33,1.07-.69.57-.3,1.1-.66.54-.34,1.07-.7.47-.45,1-.8.63-.22,1.16-.58.41-.54.94-.89.58-.29,1.11-.65.5-.4,1.03-.75.62-.23,1.15-.58.5-.41,1.03-.77.57-.31,1.1-.67.44-.49.98-.85.52-.34,1.03-.69.54-.31,1.05-.66.79-.1,1.08-.65.05-.63.05-1.25-.11-.62-.11-1.24-.04-.62-.04-1.24.1-.65.1-1.3-.03-.65-.03-1.29.03-.65.03-1.29-.04-.65-.04-1.3-.09-.65-.09-1.3.21-.65.21-1.3-.02-.65-.02-1.3-.12-.65-.12-1.3.08-.65.08-1.3-.14-.65-.14-1.3.6-.89.12-1.33c-.51-.48-.73.1-1.43.1s-.7.02-1.4.02-.7-.08-1.4-.08-.71.1-1.39-.05c-.75-.17-.94-.48-1.45,0Z"/></g><polygon class="cls-1" points="73.92 64.14 68.72 60.41 63.65 57.12 58.62 53.72 48.69 46.75 43.63 43.45 38.57 40.09 33.59 36.62 28.69 33.02 23.63 29.7 18.61 26.29 13.54 22.97 8.62 19.37 3.36 15.96 3.37 8.52 3.29 .36 4.02 .36 4.1 8.52 4.09 15.56 9.04 18.77 13.95 22.37 19.02 25.69 24.04 29.09 29.11 32.42 34.01 36.02 38.98 39.49 44.03 42.84 49.1 46.15 59.04 53.12 64.05 56.51 69.13 59.81 73.92 63.24 78.68 59.8 83.78 56.46 88.69 52.92 93.69 49.48 98.87 46.28 103.79 42.77 108.78 39.32 113.82 35.93 118.8 32.49 123.89 29.17 128.86 25.72 133.79 22.2 143.75 15.57 143.81 8.72 143.82 .3 144.55 .36 144.54 8.73 144.48 15.96 139.24 19.43 134.2 22.8 129.28 26.32 124.3 29.78 119.21 33.09 114.23 36.53 109.19 39.92 104.21 43.37 99.27 46.88 94.09 50.09 89.11 53.52 84.19 57.06 79.1 60.4 73.92 64.14"/></g></g></svg>