<?xml version="1.0" encoding="UTF-8"?><svg id="Layer_2" xmlns="http://www.w3.org/2000/svg" viewBox="0 0 147.8 256.08"><defs><style>.cls-1{fill:#d4cdbe;}.cls-2{fill:#231f20;}</style></defs><g id="Layer_1-2"><g><g><rect class="cls-1" width="147.56" height="254.84"/><path class="cls-2" d="m140.56.99s-.02.01-.02.01c0,.64.09.64.09,1.28s-.22.64-.22,1.28,0,.64,0,1.28.13.64.13,1.28.12.64.12,1.29-.21.64-.21,1.29-.02.64-.02,1.29.17.64.17,1.29-.07.64-.07,1.29,0,.64,0,1.29.22.64.22,1.29-.02.64-.02,1.29-.09.64-.09,1.29-.02.64-.02,1.29.02.64.02,1.29-.2.64-.2,1.29,0,.64,0,1.29.28.64.28,1.29-.2.64-.2,1.29-.01.64-.01,1.29-.1.64-.1,1.29.31.64.31,1.29-.09.64-.09,1.29-.24.64-.24,1.29.33.64.33,1.29-.19.64-.19,1.29-.16.64-.16,1.28.2.64.2,1.28-.07.64-.07,1.28.09.64.09,1.29.12.64.12,1.29-.06.64-.06,1.29-.18.64-.18,1.29-.07.64-.07,1.29.31.64.31,1.29.03.64.03,1.29-.32.64-.32,1.29,0,.64,0,1.29-.04.64-.04,1.29.27.64.27,1.29-.2.64-.2,1.29.26.64.26,1.29-.21.64-.21,1.29-.05.64-.05,1.29.23.64.23,1.29-.3.64-.3,1.29.34.64.34,1.29,0,.64,0,1.29-.19.64-.19,1.29.05.64.05,1.29,0,.64,0,1.29-.15.64-.15,1.29.12.64.12,1.29-.15.64-.15,1.29.09.64.09,1.29.2.64.2,1.29-.3.64-.3,1.29.09.64.09,1.28.19.64.19,1.28.01.64.01,1.28.01.64.01,1.28-.31.64-.31,1.28.23.64.23,1.28.04.64.04,1.28-.04.64-.04,1.28-.18.64-.18,1.28.03.64.03,1.28.23.64.23,1.28-.13.64-.13,1.28-.17.64-.17,1.28.34.64.34,1.28-.37.64-.37,1.28.35.64.35,1.28.03.64.03,1.28-.15.64-.15,1.28-.01.64-.01,1.28-.18.64-.18,1.28.21.64.21,1.28.1.64.1,1.29-.31.64-.31,1.29.25.64.25,1.29-.06.64-.06,1.29.09.64.09,1.29-.09.64-.09,1.29-.02.64-.02,1.29-.18.64-.18,1.29.27.64.27,1.29-.09.64-.09,1.29,0,.64,0,1.29-.09.64-.09,1.29-.07.64-.07,1.28-.02.64-.02,1.28.2.64.2,1.28.07.64.07,1.28.04.64.04,1.28-.25.64-.25,1.28.03.64.03,1.28.1.64.1,1.28-.16.64-.16,1.28.31.64.31,1.28-.11.64-.11,1.28-.16.64-.16,1.28.27.64.27,1.29-.23.64-.23,1.29,0,.64,0,1.29.04.64.04,1.29-.14.64-.14,1.29.05.64.05,1.29.01.64.01,1.29.04.64.04,1.29.12.64.12,1.29-.18.64-.18,1.29.15.64.15,1.29,0,.64,0,1.29-.17.64-.17,1.29.08.64.08,1.29-.1.64-.1,1.29.2.64.2,1.29-.13.64-.13,1.29,0,.64,0,1.29.06.64.06,1.29.19.64.19,1.29-.08.64-.08,1.29.02.64.02,1.29,0,.64,0,1.29-.06.64-.06,1.29-.16.64-.16,1.29-.04.64-.04,1.29.07.64.07,1.29.23.64.23,1.29-.22.64-.22,1.29.16.64.16,1.29-.15.64-.15,1.29.17.64.17,1.29-.18.64-.18,1.29-.13.64-.13,1.29.34.64.34,1.29-.15.64-.15,1.29-.19.64-.19,1.29.03.64.03,1.29,0,.65,0,1.29-.02.65-.02,1.29.21.64.21,1.29-.25.64-.25,1.29,0,.64,0,1.29.25.64.25,1.29-.08.64-.08,1.29-.14.64-.14,1.29.07.64.07,1.29.12.64.12,1.29-.01.65-.01,1.29,0,.65,0,1.29.07.64.07,1.29-.12.64-.12,1.29.04.64.04,1.29-.01.64-.01,1.29-.16.64-.16,1.29.23.65.23,1.29.11.65.11,1.29,0,.64,0,1.29-.1.64-.1,1.29.02.64.02,1.29.03.64.03,1.29.02.64.02,1.29.01.64.01,1.29-.26.64-.26,1.29-.05.64-.05,1.29.22.64.22,1.29.08.65.08,1.29-.28.65-.28,1.29.19.64.19,1.29.13.64.13,1.29-.09.64-.09,1.29,0,.64,0,1.29-.06.65-.06,1.29-.07.65-.07,1.29.07.65.07,1.29-.12.64-.12,1.29.03.65.03,1.29.23.65.23,1.29-.35.65-.35,1.29.21.65.21,1.29-.07.65-.07,1.29.17.65.17,1.29-.08.65-.08,1.29-.21.65-.21,1.29.28.65.28,1.29-.3.65-.3,1.29.25.65.25,1.29-.04.65-.04,1.29-.1.65-.1,1.29-.06.65-.06,1.29.22.65.22,1.29-.04.65-.04,1.3-.22.65-.22,1.29.08.65.08,1.3,0,.65,0,1.3-.37.85.11,1.29c.51.48.69.14,1.39.14s.7-.27,1.4-.27.7.03,1.4.03.7.15,1.4.15.82.36,1.34-.12c.47-.43.18-.57.18-1.21s.05-.64.05-1.28-.02-.64-.02-1.28-.17-.64-.17-1.28,0-.64,0-1.29,0-.64,0-1.29.03-.64.03-1.29,0-.64,0-1.29.18-.64.18-1.29-.28-.64-.28-1.29.1-.64.1-1.29.07-.64.07-1.29.05-.64.05-1.29-.07-.64-.07-1.29.09-.64.09-1.29-.04-.64-.04-1.29-.08-.64-.08-1.29-.02-.64-.02-1.29.05-.64.05-1.29.04-.64.04-1.29-.16-.64-.16-1.29.02-.64.02-1.29-.15-.64-.15-1.29.13-.64.13-1.29-.1-.64-.1-1.29.02-.64.02-1.29.27-.64.27-1.28-.04-.64-.04-1.28-.2-.64-.2-1.28.25-.64.25-1.29-.05-.64-.05-1.29-.07-.64-.07-1.29.13-.64.13-1.29-.14-.64-.14-1.29.09-.64.09-1.29,0-.64,0-1.29.04-.64.04-1.29-.32-.64-.32-1.29.01-.64.01-1.29.2-.64.2-1.29.11-.64.11-1.29-.26-.64-.26-1.29.28-.64.28-1.29.03-.64.03-1.29-.26-.64-.26-1.29.06-.64.06-1.29.17-.64.17-1.29.01-.64.01-1.29-.09-.64-.09-1.29,0-.64,0-1.29-.27-.64-.27-1.29.36-.64.36-1.29-.22-.64-.22-1.29.19-.64.19-1.29-.24-.64-.24-1.29.22-.64.22-1.29-.16-.64-.16-1.29.12-.64.12-1.28-.07-.64-.07-1.28.02-.64.02-1.28-.15-.64-.15-1.28.3-.64.3-1.28-.03-.64-.03-1.28-.15-.64-.15-1.28-.09-.64-.09-1.28.14-.64.14-1.28.11-.64.11-1.28-.18-.64-.18-1.28-.11-.64-.11-1.28.16-.64.16-1.28-.14-.64-.14-1.28.07-.64.07-1.28-.14-.64-.14-1.28.02-.64.02-1.28.22-.64.22-1.28-.2-.64-.2-1.28.31-.64.31-1.28-.26-.64-.26-1.28.19-.64.19-1.29-.18-.64-.18-1.29.23-.64.23-1.29-.02-.64-.02-1.29-.13-.64-.13-1.29.02-.64.02-1.29-.03-.64-.03-1.29-.07-.64-.07-1.29.16-.64.16-1.29.1-.64.1-1.29-.31-.64-.31-1.29.26-.64.26-1.29-.24-.64-.24-1.28-.08-.64-.08-1.28.17-.64.17-1.28.15-.64.15-1.28-.27-.64-.27-1.28.07-.64.07-1.28-.1-.64-.1-1.28.21-.64.21-1.28-.1-.64-.1-1.28-.1-.64-.1-1.28.06-.64.06-1.28.25-.64.25-1.28-.21-.64-.21-1.29.13-.64.13-1.29-.2-.64-.2-1.29.05-.64.05-1.29.26-.64.26-1.29-.11-.64-.11-1.29-.2-.64-.2-1.29,0-.64,0-1.29.27-.64.27-1.29-.05-.64-.05-1.29.09-.64.09-1.29-.05-.64-.05-1.29-.25-.64-.25-1.29.15-.64.15-1.29.15-.64.15-1.29-.16-.64-.16-1.29-.02-.64-.02-1.29.04-.64.04-1.29-.17-.64-.17-1.29.21-.64.21-1.29-.09-.64-.09-1.29-.1-.64-.1-1.29-.03-.64-.03-1.29,0-.64,0-1.29,0-.64,0-1.29.12-.64.12-1.29.12-.64.12-1.29.03-.64.03-1.29.09-.64.09-1.29-.05-.64-.05-1.29-.06-.64-.06-1.29.11-.64.11-1.29-.3-.64-.3-1.29-.03-.64-.03-1.29.34-.64.34-1.29-.07-.64-.07-1.29,0-.64,0-1.29-.14-.64-.14-1.29.1-.65.1-1.29-.17-.65-.17-1.29.24-.64.24-1.29-.32-.64-.32-1.29.31-.64.31-1.29-.24-.64-.24-1.29.23-.64.23-1.29-.18-.64-.18-1.29.15-.64.15-1.29.03-.64.03-1.29-.31-.65-.31-1.29.12-.65.12-1.29-.07-.64-.07-1.29,0-.64,0-1.29.21-.64.21-1.29.02-.64.02-1.29,0-.64,0-1.29-.09-.65-.09-1.29,0-.65,0-1.29-.22-.64-.22-1.29.26-.64.26-1.29-.22-.64-.22-1.29.24-.64.24-1.29-.08-.64-.08-1.29.12-.64.12-1.29-.24-.64-.24-1.29-.08-.64-.08-1.29.19-.64.19-1.29.03-.65.03-1.29,0-.65,0-1.29-.12-.64-.12-1.29-.07-.64-.07-1.29.09-.64.09-1.29,0-.64,0-1.29-.06-.65-.06-1.29.04-.65.04-1.29.2-.65.2-1.29-.07-.64-.07-1.29-.05-.65-.05-1.29-.14-.65-.14-1.29.2-.65.2-1.29.07-.65.07-1.29-.16-.65-.16-1.29-.08-.65-.08-1.29.1-.65.1-1.29-.07-.65-.07-1.29.16-.65.16-1.29-.15-.65-.15-1.29-.03-.65-.03-1.29.19-.65.19-1.29-.15-.65-.15-1.29.22-.65.22-1.29.03-.65.03-1.29-.12-.65-.12-1.3-.05-.65-.05-1.29,0-.65,0-1.3.1-.65.1-1.3.34-.84-.14-1.29c-.51-.48-.69-.05-1.39-.05s-.7-.1-1.4-.1-.7.25-1.4.25-.7-.08-1.4-.09-.7-.03-1.4-.03Z"/><path class="cls-2" d="m.26,1.01c-.47.43-.14.63-.14,1.27s.08.64.08,1.29-.12.64-.12,1.29.27.64.27,1.29.04.64.04,1.29-.2.64-.2,1.29.18.64.18,1.29,0,.64,0,1.29.01.64.01,1.29-.29.64-.29,1.29,0,.64,0,1.29.3.64.3,1.29-.03.64-.03,1.29-.02.64-.02,1.29-.25.64-.25,1.29.22.64.22,1.29-.24.64-.24,1.29.31.64.31,1.29-.28.64-.28,1.29.2.64.2,1.29.06.64.06,1.29-.29.64-.29,1.29.24.64.24,1.29-.16.64-.16,1.29.14.64.14,1.29.08.64.08,1.29-.3.64-.3,1.29.02.64.02,1.29.21.64.21,1.29-.23.64-.23,1.29.15.64.15,1.29.11.64.11,1.29.03.64.03,1.29-.14.64-.14,1.29-.15.64-.15,1.29.12.64.12,1.29-.02.64-.02,1.29.07.64.07,1.29.05.64.05,1.29-.23.64-.23,1.29.19.64.19,1.29,0,.64,0,1.29.06.64.06,1.29-.16.64-.16,1.29.22.64.22,1.29-.18.64-.18,1.29.18.64.18,1.29-.21.64-.21,1.29.12.64.12,1.29.11.64.11,1.29-.1.64-.1,1.29-.06.64-.06,1.29-.06.64-.06,1.29-.14.64-.14,1.29.11.64.11,1.29-.12.64-.12,1.29.23.64.23,1.28.11.64.11,1.28-.24.64-.24,1.28.1.64.1,1.28.17.64.17,1.28-.19.64-.19,1.28.14.64.14,1.28-.19.64-.19,1.28-.1.64-.1,1.28-.03.64-.03,1.28.2.64.2,1.28.18.64.18,1.28-.28.64-.28,1.28-.03.64-.03,1.28.12.64.12,1.28.17.64.17,1.28-.06.64-.06,1.28.02.64.02,1.28,0,.64,0,1.29-.3.64-.3,1.29.18.64.18,1.29.04.64.04,1.29-.22.64-.22,1.29.2.64.2,1.29-.07.64-.07,1.29-.08.64-.08,1.29.08.64.08,1.29.19.64.19,1.29-.28.64-.28,1.29.29.64.29,1.29-.17.64-.17,1.29.06.64.06,1.29-.08.64-.08,1.29.08.64.08,1.29.08.64.08,1.29-.25.64-.25,1.29.08.64.08,1.29.18.64.18,1.29-.02.64-.02,1.29-.12.64-.12,1.29.05.64.05,1.29-.09.64-.09,1.29-.04.64-.04,1.29-.06.64-.06,1.29.33.64.33,1.29-.04.64-.04,1.29-.32.64-.32,1.29.07.64.07,1.29-.03.64-.03,1.29-.02.64-.02,1.29.35.64.35,1.29-.05.65-.05,1.29.03.65.03,1.29-.26.65-.26,1.29.29.64.29,1.29-.03.64-.03,1.29-.03.64-.03,1.29-.1.64-.1,1.29.02.64.02,1.29.13.64.13,1.29-.12.64-.12,1.29-.18.64-.18,1.29.17.64.17,1.29.1.64.1,1.29.05.64.05,1.29-.27.64-.27,1.29.02.64.02,1.29-.1.64-.1,1.29.29.64.29,1.29-.15.65-.15,1.29-.14.65-.14,1.29.07.65.07,1.29.25.65.25,1.29-.29.64-.29,1.29.01.64.01,1.29.16.64.16,1.29.14.64.14,1.29-.08.64-.08,1.29-.18.64-.18,1.29.02.64.02,1.29.12.64.12,1.29-.16.64-.16,1.29.09.65.09,1.29.07.65.07,1.29-.08.65-.08,1.29.03.65.03,1.29-.05.65-.05,1.29.07.64.07,1.29-.2.64-.2,1.29.33.64.33,1.29-.17.64-.17,1.29.2.65.2,1.29-.31.65-.31,1.29.1.65.1,1.29-.08.65-.08,1.29.23.65.23,1.29-.1.65-.1,1.29.03.65.03,1.29.07.65.07,1.29-.3.65-.3,1.29-.02.65-.02,1.29.22.65.22,1.29-.1.64-.1,1.29-.12.64-.12,1.29.26.64.26,1.29-.07.64-.07,1.29.06.64.06,1.29-.15.64-.15,1.29.14.64.14,1.29-.17.64-.17,1.29.12.65.12,1.29-.05.65-.05,1.29-.16.65-.16,1.29.11.65.11,1.29.07.64.07,1.29.05.64.05,1.29-.04.65-.04,1.29-.09.65-.09,1.29.02.65.02,1.29.08.65.08,1.29.1.65.1,1.29-.24.65-.24,1.29.32.65.32,1.29-.14.65-.14,1.29-.08.65-.08,1.29-.12.65-.12,1.29.16.65.16,1.3.08.65.08,1.29-.18.65-.18,1.3.22.65.22,1.29-.12.65-.12,1.29-.01.65-.01,1.29.19.65.19,1.29-.23.65-.23,1.3.2.65.2,1.29-.26.65-.26,1.3.14.65.14,1.3.13.65.13,1.3-.23.65-.23,1.3.05.65.05,1.3-.39.81.09,1.25c.51.48.66.13,1.36.13s.7-.07,1.4-.07.7.07,1.4.07.7-.06,1.4-.06.98.55,1.5.08c.47-.43-.24-.75-.24-1.39s-.02-.64-.02-1.29.19-.64.19-1.29-.03-.64-.03-1.29-.17-.64-.17-1.29.28-.64.28-1.29.06-.64.06-1.29-.27-.64-.27-1.29.01-.64.01-1.29.14-.64.14-1.29-.12-.64-.12-1.29.07-.64.07-1.29.03-.64.03-1.29-.15-.64-.15-1.29.22-.64.22-1.29-.07-.64-.07-1.29-.21-.64-.21-1.29.18-.64.18-1.29.02-.64.02-1.29-.19-.64-.19-1.29.35-.64.35-1.29-.19-.64-.19-1.29.09-.64.09-1.29,0-.64,0-1.29-.24-.64-.24-1.29.31-.64.31-1.29-.14-.64-.14-1.29.12-.64.12-1.29-.26-.64-.26-1.29.21-.64.21-1.29-.1-.64-.1-1.29.04-.64.04-1.29.04-.64.04-1.29.11-.64.11-1.29-.25-.64-.25-1.29-.06-.64-.06-1.29-.06-.64-.06-1.29.37-.64.37-1.29-.3-.64-.3-1.29.07-.64.07-1.29.07-.64.07-1.29.06-.64.06-1.29-.2-.64-.2-1.29-.04-.64-.04-1.29.08-.64.08-1.29.03-.64.03-1.29-.03-.64-.03-1.29.16-.64.16-1.29-.25-.64-.25-1.29.08-.64.08-1.29.09-.64.09-1.29.13-.64.13-1.29-.15-.64-.15-1.29-.03-.64-.03-1.29.07-.64.07-1.29-.14-.64-.14-1.29.09-.64.09-1.28-.09-.64-.09-1.28.06-.64.06-1.28.04-.64.04-1.28-.11-.64-.11-1.28.12-.64.12-1.28-.04-.64-.04-1.28-.12-.64-.12-1.28.23-.64.23-1.28-.07-.64-.07-1.28-.08-.64-.08-1.28.22-.64.22-1.28,0-.64,0-1.28-.2-.64-.2-1.28.22-.64.22-1.28.02-.64.02-1.28-.05-.64-.05-1.28.01-.64.01-1.28,0-.64,0-1.29-.15-.64-.15-1.29-.17-.64-.17-1.29.02-.64.02-1.29.34-.64.34-1.29-.36-.64-.36-1.29.1-.64.1-1.29-.03-.64-.03-1.29.28-.64.28-1.29-.01-.64-.01-1.29-.11-.64-.11-1.29-.12-.64-.12-1.29.25-.64.25-1.29-.15-.64-.15-1.29-.18-.64-.18-1.29.31-.64.31-1.29-.28-.64-.28-1.29.08-.64.08-1.29-.11-.64-.11-1.29.06-.64.06-1.29.12-.64.12-1.29.11-.64.11-1.29.01-.64.01-1.29.02-.64.02-1.29,0-.64,0-1.29-.29-.64-.29-1.29.05-.64.05-1.29-.04-.64-.04-1.29,0-.64,0-1.29.1-.64.1-1.29.14-.64.14-1.29-.03-.64-.03-1.29-.1-.64-.1-1.29.06-.65.06-1.29-.04-.65-.04-1.29.03-.65.03-1.29.01-.64.01-1.29.12-.64.12-1.29-.16-.64-.16-1.29-.02-.64-.02-1.29.12-.64.12-1.29-.06-.64-.06-1.29-.19-.64-.19-1.29.1-.64.1-1.29,0-.64,0-1.29.21-.64.21-1.29-.13-.64-.13-1.29-.11-.64-.11-1.29.02-.64.02-1.29-.08-.64-.08-1.29.03-.64.03-1.29.15-.65.15-1.29.03-.65.03-1.29-.11-.65-.11-1.29-.05-.65-.05-1.29.05-.64.05-1.29.17-.64.17-1.29-.15-.64-.15-1.29-.13-.64-.13-1.29.15-.64.15-1.29.12-.64.12-1.29-.08-.64-.08-1.29.09-.64.09-1.29-.22-.64-.22-1.29.14-.65.14-1.29-.01-.65-.01-1.29.02-.65.02-1.29.1-.65.1-1.29,0-.65,0-1.29-.28-.64-.28-1.29.3-.64.3-1.29-.28-.64-.28-1.29-.03-.64-.03-1.29.03-.65.03-1.29.14-.65.14-1.29-.13-.65-.13-1.29.22-.65.22-1.29-.08-.65-.08-1.29.06-.65.06-1.29-.07-.65-.07-1.29-.11-.65-.11-1.29.23-.65.23-1.29-.08-.65-.08-1.29-.02-.65-.02-1.29-.23-.64-.23-1.29.15-.64.15-1.29-.13-.64-.13-1.29.31-.64.31-1.29-.19-.64-.19-1.29.04-.64.04-1.29,0-.64,0-1.29-.06-.64-.06-1.29.22-.65.22-1.29-.29-.65-.29-1.29.01-.65.01-1.29.24-.65.24-1.29-.14-.64-.14-1.29.04-.64.04-1.29.02-.65.02-1.29.14-.65.14-1.29-.18-.65-.18-1.29-.11-.65-.11-1.29.22-.65.22-1.29-.21-.65-.21-1.29.23-.65.23-1.29-.24-.65-.24-1.29-.06-.65-.06-1.29.21-.65.21-1.29,0-.65,0-1.3.09-.65.09-1.29-.12-.65-.12-1.3.04-.65.04-1.29-.17-.65-.17-1.29,0-.65,0-1.29-.05-.65-.05-1.29.17-.65.17-1.3-.13-.65-.13-1.29.16-.65.16-1.3.04-.65.04-1.3-.18-.65-.18-1.3-.06-.65-.06-1.3.29-.65.29-1.3.38-.87-.1-1.31c-.51-.48-.71.1-1.41.1s-.7.04-1.4.04-.7-.31-1.4-.31-.72.33-1.41.19c-.72-.15-.87-.48-1.39,0Z"/></g><path class="cls-1" d="m4.06,254.93h-.73c0-1.76,0-1.73-.02-2.61,0-.88-.02-1.76-.02-3.52s0-2.64-.02-3.51c0-.88-.02-1.76-.02-3.52s-.02-2.65-.04-3.54c-.02-.89-.04-1.78-.04-3.55s.06-2.69.12-3.57c.06-.87.12-1.76.12-3.52s-.04-2.66-.07-3.53c-.04-.88-.07-1.78-.07-3.56s.07-2.69.15-3.57c.07-.86.14-1.76.14-3.51s-.06-2.65-.11-3.52c-.06-.88-.11-1.78-.11-3.57s.05-2.69.1-3.56c.05-.87.1-1.76.1-3.52s-.02-2.65-.04-3.53c-.02-.89-.04-1.77-.04-3.55s-.03-2.65-.06-3.53c-.03-.89-.06-1.78-.06-3.55s.04-2.68.08-3.56c.04-.87.08-1.76.08-3.52s0-2.66.02-3.54c0-.88.02-1.77.02-3.54s-.02-2.65-.03-3.53c-.01-.89-.03-1.77-.03-3.55s-.06-2.65-.12-3.52c-.06-.88-.12-1.78-.12-3.57s.02-2.66.03-3.55c.02-.88.03-1.77.03-3.53s.05-2.69.09-3.56c.04-.87.09-1.76.09-3.52s-.04-2.66-.09-3.52c-.04-.88-.09-1.78-.09-3.56s.02-2.66.04-3.55c.02-.88.04-1.77.04-3.53s.04-2.68.07-3.56c.03-.87.07-1.76.07-3.53s0-2.65-.01-3.54c0-.89-.01-1.77-.01-3.54s-.08-2.65-.15-3.51c-.08-.88-.15-1.79-.15-3.57s.07-2.69.13-3.57c.06-.86.13-1.76.13-3.51s0-2.65,0-3.54c0-.89,0-1.77,0-3.54s0-2.65-.01-3.54c0-.89-.01-1.77-.01-3.54s0-2.66,0-3.54c0-.88,0-1.77,0-3.54s0-2.65-.01-3.54-.01-1.77-.01-3.54-.05-2.65-.1-3.52c-.05-.88-.1-1.78-.1-3.56s0-2.65-.01-3.54c0-.88-.01-1.77-.01-3.54s.04-2.68.08-3.56c.04-.87.08-1.76.08-3.52s0-2.65,0-3.54c0-.88,0-1.77,0-3.54s-.05-2.65-.09-3.52c-.05-.88-.09-1.78-.09-3.56s.06-2.69.11-3.56c.05-.86.11-1.76.11-3.52s-.02-2.65-.05-3.53c-.02-.89-.04-1.77-.04-3.55s.02-2.66.05-3.55c.02-.88.05-1.77.05-3.53s-.02-2.65-.05-3.53c-.02-.89-.05-1.77-.05-3.55s.05-2.68.1-3.56c.05-.87.1-1.76.1-3.52h.73c0,1.78-.05,2.68-.1,3.56-.05.87-.1,1.76-.1,3.52s.02,2.65.05,3.53c.02.89.05,1.77.05,3.55s-.02,2.66-.05,3.55c-.02.88-.05,1.77-.05,3.53s.02,2.65.05,3.53c.02.89.04,1.78.04,3.55s-.06,2.69-.11,3.56c-.06.86-.11,1.76-.11,3.52s.05,2.65.09,3.52c.05.88.09,1.78.09,3.56s0,2.65,0,3.54c0,.88,0,1.77,0,3.54s-.04,2.68-.08,3.56c-.04.87-.08,1.76-.08,3.52s0,2.65.01,3.54c0,.88.01,1.77.01,3.54s.05,2.65.1,3.52c.05.88.1,1.78.1,3.56s0,2.65.01,3.54.01,1.77.01,3.54,0,2.66,0,3.54c0,.88,0,1.77,0,3.54s0,2.65.01,3.54c0,.89.01,1.77.01,3.54s0,2.65,0,3.54c0,.89,0,1.77,0,3.54s-.07,2.69-.13,3.57c-.06.86-.13,1.76-.13,3.51s.08,2.65.15,3.51c.08.88.15,1.79.15,3.57s0,2.65.01,3.54c0,.89.01,1.77.01,3.54s-.04,2.68-.07,3.56c-.03.87-.07,1.76-.07,3.53s-.02,2.66-.04,3.55c-.02.88-.04,1.77-.04,3.53s.04,2.66.09,3.52c.04.88.09,1.78.09,3.56s-.05,2.68-.09,3.56c-.04.87-.09,1.76-.09,3.52s-.02,2.66-.03,3.55c-.02.88-.03,1.77-.03,3.53s.06,2.65.12,3.52c.06.88.12,1.78.12,3.57s.02,2.65.03,3.54c.01.89.03,1.77.03,3.55s0,2.66-.02,3.55c0,.88-.02,1.77-.02,3.54s-.04,2.68-.08,3.56c-.04.87-.08,1.76-.08,3.52s.03,2.65.06,3.53c.03.89.06,1.78.06,3.55s.02,2.65.04,3.54c.02.89.04,1.77.04,3.55s-.05,2.69-.1,3.56c-.05.87-.1,1.76-.1,3.52s.06,2.65.11,3.52c.06.88.11,1.78.11,3.57s-.07,2.69-.15,3.57c-.07.86-.14,1.76-.14,3.51s.04,2.66.07,3.53c.04.88.07,1.78.07,3.56s-.06,2.69-.12,3.57c-.06.87-.12,1.76-.12,3.52s.02,2.65.04,3.54c.02.89.04,1.78.04,3.55s0,2.64.02,3.51c0,.88.02,1.76.02,3.52s0,2.64.02,3.51c0,.88.02.85.02,2.62Z"/><path class="cls-1" d="m144.53,255.75l-.73-.02c0-1.83-.2-2.65-.15-3.55.05-.89.1-1.81.1-3.62s-.02-2.72-.05-3.63c-.02-.91-.05-1.83-.05-3.65s.02-2.74.05-3.65c.02-.91.05-1.82.05-3.63s-.02-2.72-.04-3.63c-.02-.91-.05-1.83-.05-3.65s.06-2.76.11-3.66c.05-.89.11-1.81.11-3.62s-.05-2.73-.09-3.62c-.05-.9-.09-1.83-.09-3.66s0-2.73,0-3.64c0-.91,0-1.82,0-3.64s.04-2.76.08-3.65c.04-.89.08-1.81.08-3.62s0-2.73-.01-3.64c0-.91-.01-1.82-.01-3.64s-.05-2.73-.1-3.62c-.05-.9-.1-1.83-.1-3.66s0-2.73-.01-3.64c0-.91-.01-1.82-.01-3.64s0-2.73,0-3.64c0-.91.01-1.82.01-3.64s0-2.73-.01-3.64c0-.91-.01-1.82-.01-3.64s0-2.73,0-3.64c0-.91,0-1.82,0-3.64s.07-2.76.13-3.67c.06-.89.13-1.81.13-3.61s-.08-2.72-.15-3.61c-.08-.9-.15-1.83-.15-3.67s0-2.73-.01-3.64-.01-1.82-.01-3.64.04-2.76.07-3.65c.03-.89.07-1.81.07-3.62s.02-2.74.04-3.65c.02-.91.04-1.82.04-3.63s-.04-2.73-.09-3.62c-.04-.9-.09-1.83-.09-3.66s.05-2.76.09-3.66c.04-.89.09-1.81.09-3.62s.02-2.74.03-3.65c.02-.91.03-1.82.03-3.63s-.06-2.73-.12-3.62c-.06-.9-.12-1.83-.12-3.67s-.02-2.73-.03-3.63c-.02-.91-.03-1.82-.03-3.65s0-2.73.02-3.64c0-.91.02-1.82.02-3.64s.04-2.76.08-3.66c.04-.89.08-1.81.08-3.62s-.03-2.72-.06-3.63c-.03-.91-.06-1.83-.06-3.65s-.02-2.72-.04-3.63c-.02-.91-.04-1.82-.04-3.65s.05-2.76.1-3.66c.05-.89.1-1.81.1-3.62s-.06-2.73-.11-3.62c-.06-.9-.11-1.83-.11-3.67s.07-2.77.15-3.67c.07-.89.14-1.81.14-3.61s-.04-2.74-.07-3.63c-.04-.9-.07-1.83-.07-3.66s.06-2.77.12-3.67c.06-.89.12-1.81.12-3.62s-.02-2.73-.04-3.64c-.02-.91-.04-1.83-.04-3.65s0-2.73-.02-3.64c0-.91-.02-1.82-.02-3.65h.75c0,1.82,0,2.73.02,3.64,0,.91.02,1.82.02,3.65s.02,2.73.04,3.64c.02.91.04,1.83.04,3.65s-.06,2.77-.12,3.67c-.06.89-.12,1.81-.12,3.62s.04,2.74.07,3.63c.04.9.07,1.83.07,3.66s-.07,2.77-.15,3.67c-.07.89-.14,1.81-.14,3.61s.06,2.73.11,3.62c.06.9.11,1.83.11,3.66s-.05,2.76-.1,3.66c-.05.89-.1,1.81-.1,3.62s.02,2.73.04,3.63c.02.91.04,1.82.04,3.65s.03,2.72.06,3.63c.03.91.06,1.83.06,3.65s-.04,2.76-.08,3.66c-.04.89-.08,1.81-.08,3.62s0,2.73-.02,3.64c0,.91-.02,1.82-.02,3.64s.02,2.73.03,3.63c.02.91.03,1.82.03,3.65s.06,2.73.12,3.62c.06.9.12,1.83.12,3.67s-.02,2.74-.03,3.65c-.02.91-.03,1.82-.03,3.63s-.05,2.76-.09,3.66c-.04.89-.09,1.81-.09,3.62s.04,2.73.09,3.62c.04.9.09,1.83.09,3.66s-.02,2.74-.04,3.65c-.02.91-.04,1.82-.04,3.63s-.04,2.76-.07,3.65c-.03.89-.07,1.81-.07,3.62s0,2.73.01,3.64c0,.91.01,1.82.01,3.64s.08,2.72.15,3.61c.08.9.15,1.83.15,3.67s-.07,2.77-.13,3.67c-.06.89-.13,1.81-.13,3.61s0,2.73,0,3.64c0,.91,0,1.82,0,3.64s0,2.73.01,3.64c0,.91.01,1.82.01,3.64s0,2.73-.01,3.64c0,.91,0,1.82,0,3.64s0,2.73.01,3.63c0,.91.01,1.82.01,3.64s.05,2.73.1,3.62c.05.9.1,1.83.1,3.66s0,2.73.01,3.64c0,.91.01,1.82.01,3.64s-.04,2.76-.08,3.66c-.04.89-.08,1.81-.08,3.62s0,2.73,0,3.64c0,.91,0,1.82,0,3.64s.05,2.73.09,3.62c.05.9.09,1.83.09,3.66s-.06,2.76-.11,3.66c-.05.89-.11,1.81-.11,3.62s.02,2.72.04,3.63c.02.91.05,1.83.05,3.65s-.02,2.74-.05,3.65c-.02.91-.05,1.82-.05,3.63s.02,2.72.05,3.63c.02.91.05,1.83.05,3.65s-.05,2.76-.1,3.66c-.05.89.13,1.72.13,3.53Z"/><rect class="cls-2" y=".19" width="147.56" height="1.62"/></g></g></svg>