<?xml version="1.0" encoding="utf-8"?>
<!-- Generator: Adobe Illustrator 22.0.1, SVG Export Plug-In . SVG Version: 6.00 Build 0)  -->
<svg version="1.1" id="Layer_1" xmlns="http://www.w3.org/2000/svg" xmlns:xlink="http://www.w3.org/1999/xlink" x="0px" y="0px"
	 viewBox="0 0 1920 500" style="enable-background:new 0 0 1920 500;" xml:space="preserve">
<style type="text/css">
	.st0{fill:#FFFFFF;}
</style>
<g id="Layer_1-2">
	<path class="st0" d="M1920,9.8v488.1c-15.2,0.2-46.8,2.3-55-1.2l2-0.6c-30.6,2.3-70.4,1.2-102,0.6c-52,0.2-104,0.4-156,0.6
		c-15.7-1.3-32.3-3-46-3.5c-31.4-1.2-83.3,0.3-113,2.9c-24.7,2.2-59.3,0.8-81-1.2c-14,0.6-28,1.2-42,1.7c-30.3-1.2-60.7-2.3-91-3.5
		c-10,0.4-20,0.8-30,1.2c-35-0.2-70-0.4-105-0.6c-18.4,0.2-40.8,2.4-58,0l2-1.7c-35.1,0.1-77.8-3-110,0.6l3,1.7
		c-17.3-0.8-34.7-1.6-52-2.3c-37.2,4.2-83.9-4-129,0.6c-41.9,4.3-91.6-1.6-136,2.9h-69c-13.3,0.4-26.7,0.8-40,1.2l-24-0.6
		c-22.7-2.1-52.9,0.1-70,2.3c-23,3.1-52.1-2.2-71-2.3l2-1.7c-17.9,1.5-56.7,3.6-71,0c5.5,0.1,10,0,13-1.2c-18.3-0.6-41.8-3.3-62-1.2
		v0.6c11.9-0.1,39.2-1,47,2.3c-11.8,0.5-43,3.3-52-0.6v-2.3c-30.6,0.1-64.8-3-94-0.6c-15.6,1.3-43.6,3.3-58,0l5-0.6l-1-1.2
		c-20.6,0.2-64.7,3.8-76,0V488l11-0.6H0V12.1l11-0.6H0V1.1c14,0.2,28,0.4,42,0.6l-2,1.7C94.5-3,164.4,2.2,220,2.2
		c12.8,0,74.3-1.5,78-0.6c10.3,2.6,95.5,5.5,116,3.5C498.6-3,589.1,5,674,5.1c45.3-0.2,90.7-0.4,136-0.6c20.1,0,38.9-1.7,56,0.6v0.6
		l-6,0.6h112l-2-1.7c7.5,0.1,33.7,0.5,29,2.3c8.3,2.3,24.9-0.9,30-1.7c29,0.2,58,0.4,87,0.6c23.8,0,44.1,1.9,67-0.6
		c29.9-3.3,66.4,1.7,99-1.7c13.7-1.5,39.3-2.9,54-0.6h130c13.5,2,43.2-4.6,64-2.3c10.7,1.2,25.6,4.7,37,3.5c10.1-1,54.2-2.6,62,0
		v0.6l-14,0.6c17,1.1,45.5,5.5,64,1.2L1632,4c15.8-1.2,35.2-1,52-0.6V4c-1.1,1.6-0.9,0.8-1,2.3c37,0.2,74,0.4,111,0.6
		c11.1-0.9,32.4-1.7,42,0.6c-3.6,0.3-3,0.2-5,1.2c15.7,0.2,31.3,0.4,47,0.6c5.2-0.9,14-3.7,24-2.3C1908.1,7.8,1910.4,9.6,1920,9.8z"
		/>
</g>
</svg>
