<?xml version="1.0" encoding="utf-8"?>
<!-- Generator: Adobe Illustrator 22.0.1, SVG Export Plug-In . SVG Version: 6.00 Build 0)  -->
<svg version="1.1" id="Layer_1" xmlns="http://www.w3.org/2000/svg" xmlns:xlink="http://www.w3.org/1999/xlink" x="0px" y="0px"
	 viewBox="0 0 1920 100" style="enable-background:new 0 0 1920 100;" xml:space="preserve">
<style type="text/css">
	.st0{fill:#FFFFFF;}
	.st1{fill:none;}
</style>
<path class="st0" d="M0,100V14.1l11-0.6H0V3.1c14,0.2,28,0.4,42,0.6l-2,1.7C94.5-1,164.4,4.2,220,4.2c12.8,0,74.3-1.5,78-0.6
	c10.3,2.6,95.5,5.5,116,3.5C498.6-1,589.1,7,674,7.1c45.3-0.2,90.7-0.4,136-0.6c20.1,0,38.9-1.7,56,0.6v0.6l-6,0.6h112l-2-1.7
	c7.5,0.1,33.7,0.5,29,2.3c8.3,2.3,24.9-0.9,30-1.7c29,0.2,58,0.4,87,0.6c23.8,0,44.1,1.9,67-0.6c29.9-3.3,66.4,1.7,99-1.7
	c13.7-1.5,39.3-2.9,54-0.6h130c13.5,2,43.2-4.6,64-2.3c10.7,1.2,25.6,4.7,37,3.5c10.1-1,54.2-2.6,62,0v0.6l-14,0.6
	c17,1.1,45.5,5.5,64,1.2L1632,6c15.8-1.2,35.2-1,52-0.6V6c-1.1,1.6-0.9,0.8-1,2.3c37,0.2,74,0.4,111,0.6c11.1-0.9,32.4-1.7,42,0.6
	c-3.6,0.3-3,0.2-5,1.2c15.7,0.2,31.3,0.4,47,0.6c5.2-0.9,14-3.7,24-2.3c6.1,0.8,8.4,2.6,18,2.8"/>
<line class="st1" x1="0" y1="100" x2="1920" y2="100"/>
</svg>
