<?xml version="1.0" encoding="utf-8"?>
<!-- Generator: Adobe Illustrator 22.0.1, SVG Export Plug-In . SVG Version: 6.00 Build 0)  -->
<svg version="1.1" id="Layer_1" xmlns="http://www.w3.org/2000/svg" xmlns:xlink="http://www.w3.org/1999/xlink" x="0px" y="0px"
	 viewBox="0 0 1920 100" style="enable-background:new 0 0 1920 100;" xml:space="preserve">
<style type="text/css">
	.st0{fill:#FFFFFF;}
</style>
<g id="Layer_1-2">
	<path class="st0" d="M1920,98.8c-15.2,0.3-46.8,4-55-2l2-1c-30.6,4-70.4,2-102,1c-52,0.3-104,0.7-156,1c-15.7-2.3-32.3-5.1-46-6
		c-31.4-2.1-83.3,0.5-113,5c-24.7,3.8-59.3,1.3-81-2c-14,1-28,2-42,3c-30.3-2-60.7-4-91-6c-10,0.7-20,1.3-30,2c-35-0.3-70-0.7-105-1
		c-18.4,0.3-40.8,4.1-58,0l2-3c-35.1,0.1-77.8-5.2-110,1l3,3c-17.3-1.3-34.7-2.7-52-4c-37.2,7.2-83.9-6.9-129,1
		c-41.9,7.3-91.6-2.7-136,5h-69c-13.3,0.7-26.7,1.3-40,2l-24-1c-22.7-3.6-52.9,0.1-70,4c-23,5.3-52.1-3.8-71-4l2-3
		c-17.9,2.6-56.7,6.1-71,0c5.5,0.2,10,0,13-2c-18.3-1-41.8-5.7-62-2v1c11.9-0.2,39.2-1.8,47,4c-11.8,0.8-43,5.6-52-1v-4
		c-30.6,0.2-64.8-5.1-94-1c-15.6,2.2-43.6,5.7-58,0l5-1l-1-2c-20.6,0.3-64.7,6.6-76,0V0h1920"/>
</g>
</svg>
