<?xml version="1.0" encoding="utf-8"?>
<!-- Generator: Adobe Illustrator 22.0.1, SVG Export Plug-In . SVG Version: 6.00 Build 0)  -->
<svg version="1.1" id="Layer_1" xmlns="http://www.w3.org/2000/svg" xmlns:xlink="http://www.w3.org/1999/xlink" x="0px" y="0px"
	 viewBox="0 0 1920 100" style="enable-background:new 0 0 1920 100;" xml:space="preserve">
<style type="text/css">
	.st0{fill:#FFFFFF;}
</style>
<g id="Layer_1-2">
	<path class="st0" d="M1920,16.8c-9.6-0.3-11.9-3.5-18-5c-10-2.4-18.8,2.4-24,4c-15.7-0.3-31.3-0.7-47-1c2-1.6,1.4-1.4,5-2
		c-9.6-4-30.9-2.6-42-1c-37-0.3-74-0.7-111-1c0.1-2.6-0.1-1.2,1-4v-1c-16.8-0.8-36.2-1.1-52,1l47,4c-18.5,7.4-47-0.1-64-2l14-1v-1
		c-7.8-4.5-51.9-1.8-62,0c-11.4,2-26.3-4-37-6c-20.8-3.9-50.5,7.4-64,4h-130c-14.7-3.9-40.3-1.5-54,1c-32.6,6-69.1-2.6-99,3
		c-22.9,4.3-43.2,1-67,1c-29-0.3-58-0.7-87-1c-5.1,1.4-21.7,6.9-30,3c4.7-3.2-21.5-3.9-29-4l2,3H860l6-1v-1c-17.1-4-35.9-1-56-1
		c-45.3,0.3-90.7,0.7-136,1c-84.9-0.2-175.4-13.9-260,0c-20.5,3.4-105.7-1.5-116-6c-3.7-1.6-65.2,1-78,1c-55.6,0-125.5-8.9-180,2
		l2-3c-14-0.3-28-0.7-42-1V101h1920"/>
</g>
</svg>
