<svg 
 xmlns="http://www.w3.org/2000/svg"
 xmlns:xlink="http://www.w3.org/1999/xlink"
 width="1332px" height="1312px">
<path fill-rule="evenodd"  opacity="0.18" fill="rgb(222, 207, 176)"
 d="M617.369,146.119 C617.460,141.642 619.327,140.766 622.920,143.472 C622.852,147.957 620.985,148.834 617.369,146.119 ZM717.429,1079.970 C738.861,1076.604 760.470,1073.590 781.236,1067.132 C789.053,1065.464 797.046,1064.741 805.019,1064.295 C783.168,1076.268 758.267,1080.693 734.065,1085.299 C694.355,1092.469 653.347,1096.873 613.355,1089.322 C601.058,1088.089 588.898,1082.850 576.496,1085.833 C547.853,1081.850 521.669,1068.532 494.590,1059.045 C465.283,1048.706 437.102,1034.968 412.013,1016.479 C402.807,1009.303 391.925,1003.248 385.902,992.861 C395.966,997.272 405.285,1003.185 414.592,1008.980 C442.089,1027.111 471.531,1042.522 502.640,1053.492 C529.366,1059.894 555.128,1069.929 582.344,1074.304 C609.555,1077.429 636.763,1080.780 664.003,1083.605 C681.902,1085.473 699.746,1082.213 717.429,1079.970 ZM825.974,1071.614 C826.299,1067.198 828.277,1066.252 831.871,1068.730 C831.640,1073.125 829.661,1074.072 825.974,1071.614 ZM928.623,1035.301 C926.532,1041.596 918.905,1043.735 913.021,1044.951 C912.034,1042.559 911.149,1040.121 910.382,1037.672 C912.286,1038.257 916.070,1039.419 917.965,1040.028 C921.337,1038.109 924.662,1035.719 928.623,1035.301 ZM888.634,1032.575 C900.132,1024.310 912.323,1016.905 925.273,1011.152 C927.817,1013.854 930.946,1016.212 932.595,1019.623 C929.106,1024.675 921.665,1022.459 917.515,1026.718 C899.069,1043.595 874.556,1051.687 850.337,1055.890 C861.393,1045.584 876.024,1040.558 888.634,1032.575 ZM986.708,954.365 C986.870,945.544 1001.878,944.210 1004.746,952.455 C1011.636,964.137 986.091,966.755 986.708,954.365 ZM1092.144,870.395 C1094.274,880.203 1082.643,883.538 1075.107,884.548 C1074.252,874.971 1084.695,871.921 1092.144,870.395 ZM153.823,342.066 C153.771,345.990 152.195,346.778 149.114,344.439 C149.141,340.505 150.719,339.716 153.823,342.066 ZM148.169,310.795 C145.599,306.976 152.156,302.584 154.775,306.280 C157.209,310.159 150.842,314.794 148.169,310.795 ZM179.238,267.099 C181.849,262.790 186.890,261.479 191.392,260.163 C187.712,264.972 184.072,269.825 179.873,274.208 C175.801,274.243 177.685,269.088 179.238,267.099 ZM146.522,413.137 C145.548,416.652 144.450,420.121 143.221,423.567 C138.261,420.283 141.596,413.924 146.522,413.137 ZM197.590,335.565 C196.814,341.539 194.103,348.563 187.696,350.260 C190.246,345.360 190.037,334.838 197.590,335.565 ZM199.547,327.317 C197.553,323.918 202.939,319.477 205.414,323.173 C207.788,326.690 201.910,331.086 199.547,327.317 ZM252.308,230.075 C254.508,233.753 248.301,239.385 245.836,234.841 C243.835,231.239 249.668,225.918 252.308,230.075 ZM236.718,248.838 C232.110,259.421 221.765,263.701 211.776,267.718 C218.821,259.965 225.954,251.170 236.718,248.838 ZM203.379,247.572 C209.640,236.372 215.193,224.134 226.242,216.747 C235.489,210.289 242.329,198.913 254.152,197.156 C242.313,210.625 228.105,221.828 217.089,236.038 C213.052,240.369 209.601,246.288 203.379,247.572 ZM280.172,180.730 C280.384,176.385 282.330,175.596 285.929,178.359 C285.739,182.799 283.801,183.563 280.172,180.730 ZM290.231,191.692 C293.107,188.989 294.742,189.613 295.084,193.545 C292.127,196.163 290.518,195.548 290.231,191.692 ZM306.003,180.776 C306.189,176.277 308.060,175.318 311.675,177.889 C311.490,182.388 309.585,183.362 306.003,180.776 ZM333.907,144.184 C332.652,140.783 338.073,136.469 340.744,139.503 C342.163,142.996 336.499,147.501 333.907,144.184 ZM339.886,158.471 C332.917,161.938 327.112,167.184 320.424,171.100 C322.201,167.041 323.471,162.078 328.006,160.234 C336.271,156.125 343.353,149.097 352.799,147.766 C349.961,152.896 344.947,155.920 339.886,158.471 ZM522.257,71.726 C527.735,67.859 534.275,65.221 541.072,66.964 C535.539,70.754 528.881,72.213 522.257,71.726 ZM424.142,104.636 C431.530,99.483 441.099,97.234 450.035,97.611 C442.421,102.393 433.493,108.461 424.142,104.636 ZM418.208,109.776 C408.476,116.757 398.243,125.278 386.188,126.975 C392.817,118.384 403.504,114.916 412.832,110.106 C414.195,110.031 416.870,109.861 418.208,109.776 ZM358.462,145.417 C355.209,147.324 352.230,144.200 355.010,141.232 C364.633,135.798 375.077,131.330 385.940,129.036 C378.313,136.680 367.806,140.415 358.462,145.417 ZM413.410,75.597 C420.377,69.460 429.449,66.881 438.304,64.869 C432.797,72.755 422.399,74.716 413.410,75.597 ZM1331.696,574.060 C1331.641,606.528 1328.839,638.912 1329.023,671.357 C1326.712,709.887 1313.423,746.695 1300.301,782.630 C1295.827,792.783 1292.701,804.244 1284.475,812.112 C1288.480,791.367 1295.744,771.300 1298.277,750.247 C1299.632,740.606 1302.665,731.323 1305.299,721.972 C1314.809,685.992 1315.220,648.353 1312.225,611.457 C1310.955,597.835 1311.169,583.900 1306.723,570.796 C1299.840,542.376 1294.517,513.585 1287.574,485.171 C1283.700,470.497 1276.799,456.910 1270.836,443.027 C1260.206,420.554 1249.793,397.141 1232.349,378.990 C1232.989,390.840 1243.953,397.722 1247.891,408.220 C1254.298,425.251 1257.955,443.245 1265.078,460.039 C1271.608,475.784 1275.200,492.534 1281.016,508.517 C1286.899,524.694 1289.742,541.698 1292.775,558.575 C1298.387,625.554 1291.605,693.703 1273.274,758.435 C1272.806,760.555 1272.361,762.684 1271.967,764.831 C1271.661,764.743 1271.014,764.581 1270.672,764.508 C1272.693,750.667 1275.307,736.909 1278.469,723.277 C1284.450,692.304 1286.071,660.633 1285.529,629.130 C1285.335,624.884 1285.782,620.146 1282.690,616.723 C1282.295,638.790 1280.057,660.777 1276.269,682.514 C1274.758,689.597 1275.244,697.388 1271.446,703.768 C1270.547,691.707 1272.815,679.747 1273.817,667.759 C1276.189,645.567 1277.318,623.214 1276.399,600.872 C1276.540,583.929 1271.562,567.614 1268.411,551.118 C1264.798,533.678 1262.257,515.881 1256.109,499.064 C1243.572,467.690 1227.343,437.885 1216.136,405.998 C1196.163,355.157 1156.913,315.714 1128.411,270.044 C1127.275,269.155 1124.968,267.396 1123.822,266.532 L1125.057,264.932 C1131.400,271.582 1137.049,278.932 1143.988,284.985 C1143.478,276.733 1136.678,271.356 1132.285,265.025 C1127.587,259.571 1123.902,251.979 1116.208,250.431 C1113.972,253.833 1117.762,256.019 1119.477,258.518 C1119.234,260.042 1118.761,263.067 1118.529,264.568 C1135.877,299.170 1160.293,329.603 1179.724,362.984 C1203.177,403.746 1211.636,451.154 1234.667,492.126 C1241.148,503.169 1241.700,516.290 1246.645,527.939 C1259.673,569.545 1259.094,613.646 1259.908,656.773 C1261.016,687.984 1253.444,719.113 1240.796,747.483 C1238.871,738.774 1242.448,730.152 1243.247,721.519 C1246.421,703.322 1246.227,684.804 1249.005,666.600 C1248.291,647.884 1247.268,629.162 1245.797,610.497 C1241.265,591.969 1243.965,572.486 1238.707,554.078 C1233.680,536.553 1225.989,519.911 1220.570,502.520 C1214.955,477.165 1205.147,452.990 1197.161,428.348 C1193.188,418.319 1191.615,407.050 1184.667,398.495 C1184.618,407.840 1189.505,416.147 1192.251,424.857 C1197.399,440.583 1204.269,456.031 1205.792,472.702 C1208.028,492.339 1220.365,509.222 1221.643,529.063 C1207.650,516.143 1204.180,496.915 1197.620,479.910 C1191.980,464.733 1186.613,449.433 1180.905,434.286 C1175.205,419.711 1165.583,407.013 1160.258,392.268 C1156.239,382.137 1152.975,370.023 1142.308,364.816 C1151.044,397.008 1170.645,424.893 1181.288,456.394 C1185.972,470.810 1191.992,484.770 1196.395,499.248 C1181.961,487.182 1184.084,465.720 1171.008,452.924 C1165.562,445.936 1164.135,436.963 1161.357,428.781 C1145.864,390.433 1119.195,358.318 1097.857,323.242 C1096.349,322.809 1093.341,321.916 1091.834,321.481 C1086.487,313.113 1079.084,305.973 1075.143,296.751 C1072.342,285.580 1061.819,279.179 1055.138,270.442 C1044.268,259.228 1034.756,244.899 1019.762,239.061 C1018.888,240.457 1017.125,243.217 1016.252,244.614 C1007.199,238.747 1006.232,226.119 996.105,221.798 C988.961,218.588 985.716,210.513 978.242,207.941 C968.271,204.107 960.393,196.502 950.427,192.726 C942.223,189.394 934.426,185.141 927.086,180.211 C912.799,170.811 895.826,166.884 880.832,158.890 C875.204,155.946 867.760,154.779 863.134,160.134 C870.795,162.662 878.373,165.555 885.664,169.048 C883.485,170.969 881.323,172.840 879.162,174.710 C884.743,179.564 891.225,183.174 898.446,184.996 C897.474,180.850 896.538,176.690 895.576,172.521 C900.268,175.021 906.182,175.804 909.928,179.817 C911.268,183.591 908.405,187.521 908.036,191.238 C912.422,192.090 917.245,191.718 921.240,194.038 C935.692,202.933 951.842,209.014 965.112,219.812 C972.007,226.502 982.748,224.531 989.907,230.527 C1001.641,239.775 1014.943,247.520 1024.123,259.594 C1032.875,270.710 1038.195,284.347 1048.518,294.247 C1072.298,318.393 1097.136,342.149 1115.320,370.996 C1127.251,399.274 1140.431,427.033 1150.655,455.992 C1161.240,484.975 1170.232,514.484 1178.504,544.173 C1183.587,561.777 1180.235,580.216 1179.983,598.195 C1169.725,569.025 1172.833,536.956 1163.221,507.580 C1159.191,497.698 1152.251,489.119 1150.177,478.425 C1147.029,464.227 1136.676,453.294 1131.751,439.807 C1128.580,431.617 1126.436,422.740 1120.510,415.966 C1112.038,406.347 1107.789,393.914 1099.465,384.209 C1090.940,374.060 1086.134,361.528 1078.604,350.707 C1068.256,334.555 1053.733,321.831 1040.661,307.988 C1013.717,280.904 987.257,251.960 952.524,234.727 C951.763,230.549 951.743,225.177 946.768,223.790 C921.158,211.940 894.393,201.778 871.162,185.558 C867.665,183.345 863.470,182.962 859.489,182.464 C846.605,181.801 834.837,175.832 822.570,172.512 C823.428,170.937 825.199,167.784 826.080,166.218 C822.179,165.438 818.079,164.582 817.061,159.966 C802.859,152.870 785.841,155.083 770.777,150.466 C767.608,150.221 764.550,151.466 761.491,151.973 C761.376,150.340 761.124,147.065 761.008,145.432 C745.178,142.452 728.972,141.201 712.907,142.475 C700.080,142.259 687.283,141.515 674.465,142.240 C660.675,143.131 646.519,141.189 633.143,145.531 C632.524,143.733 631.316,140.207 630.696,138.411 C654.315,131.993 678.680,135.138 702.770,134.546 C727.583,134.882 752.067,139.719 776.819,140.884 C785.734,141.167 795.285,148.332 803.668,144.212 L803.536,141.211 C792.902,136.810 782.546,131.012 770.869,130.157 C764.578,125.457 757.132,130.019 750.154,128.973 C742.920,128.226 735.545,128.814 728.423,127.400 C716.749,119.482 701.992,121.792 688.692,120.658 C670.274,118.733 651.657,119.260 633.246,120.884 C616.571,124.874 599.198,123.036 582.613,127.458 C553.110,132.566 523.849,139.867 496.740,152.755 C501.138,152.902 505.578,152.867 510.002,152.653 C484.635,164.988 457.137,173.840 434.786,191.582 C429.397,196.107 422.539,198.909 418.304,204.726 C438.770,197.273 458.600,188.217 477.515,177.393 C485.588,172.077 495.943,173.050 504.083,167.930 C515.985,160.244 531.090,161.330 543.616,155.131 C548.791,152.425 554.576,151.171 560.410,151.498 C554.856,157.720 546.096,159.114 538.158,158.949 C526.095,166.687 511.215,167.758 499.352,175.714 C487.088,183.460 472.110,185.459 460.032,193.532 C443.214,205.923 422.156,210.169 404.959,221.990 C380.857,238.892 356.110,255.180 334.806,275.676 C275.201,330.494 225.391,398.900 204.081,477.902 C201.168,484.565 202.069,494.840 192.958,496.184 C189.156,508.892 185.119,521.623 182.927,534.719 C181.898,540.908 187.667,545.864 186.672,552.039 C185.794,561.323 184.402,570.693 180.781,579.356 C176.772,588.891 179.192,599.350 178.754,609.340 C179.236,630.522 175.373,651.859 179.884,672.820 C180.904,696.533 188.685,719.111 193.872,742.088 C205.919,788.342 226.519,832.044 252.022,872.341 C262.210,888.461 270.981,905.769 284.139,919.760 C293.085,929.701 303.458,938.202 312.728,947.814 C319.870,955.195 324.833,964.267 330.500,972.759 C337.721,983.574 349.915,989.166 360.169,996.571 C385.612,1013.095 409.962,1031.586 437.281,1045.052 C476.114,1064.930 518.111,1077.331 559.507,1090.640 C574.654,1095.487 590.674,1095.219 606.263,1097.567 C655.867,1101.865 706.257,1101.724 755.279,1092.236 C770.173,1096.334 784.648,1090.822 797.796,1084.181 C799.485,1076.709 806.173,1076.880 811.553,1080.552 C813.738,1077.356 815.831,1073.956 819.366,1072.128 C820.132,1073.613 821.632,1076.597 822.398,1078.081 C837.889,1074.518 852.725,1068.436 867.226,1061.970 C879.037,1056.746 889.551,1048.531 902.302,1045.455 C889.834,1058.939 870.955,1064.386 858.263,1077.417 C871.214,1077.310 881.043,1067.841 892.531,1063.317 C899.450,1060.284 907.724,1060.833 913.795,1055.857 C919.277,1051.680 927.260,1052.174 931.879,1046.617 C942.253,1034.830 958.009,1027.823 964.283,1012.653 C952.385,1012.452 950.501,1029.353 938.667,1029.432 C946.053,1019.454 954.388,1010.181 963.332,1001.621 C977.855,992.638 993.370,984.999 1006.895,974.471 C1010.409,974.111 1013.880,974.982 1017.392,975.443 C1035.379,960.661 1054.484,946.220 1067.285,926.365 C1077.304,911.718 1088.518,897.954 1099.942,884.382 C1106.196,876.697 1115.838,873.144 1125.176,870.834 C1128.009,873.448 1129.977,877.435 1133.900,878.677 C1138.267,879.351 1142.904,878.653 1147.152,880.161 C1152.040,891.959 1150.952,906.326 1161.502,915.406 C1164.421,913.483 1167.356,911.596 1170.313,909.717 C1173.559,915.412 1177.935,920.971 1178.721,927.683 C1177.810,937.947 1175.664,949.584 1166.160,955.377 C1165.471,964.988 1161.130,974.424 1163.414,984.121 C1171.278,982.697 1171.302,990.737 1173.589,995.894 C1175.492,1000.792 1179.247,1004.636 1182.505,1008.662 C1181.978,1010.192 1180.929,1013.309 1180.401,1014.839 C1182.826,1019.340 1186.055,1023.665 1186.797,1028.857 C1188.966,1063.678 1172.499,1096.776 1150.929,1123.100 C1135.192,1142.317 1109.570,1149.673 1094.142,1169.122 C1090.627,1174.021 1084.503,1175.344 1079.369,1177.867 C1065.663,1183.813 1055.809,1195.430 1043.832,1203.910 C1022.057,1220.140 996.113,1228.934 971.736,1240.312 C962.614,1244.064 953.960,1249.045 944.313,1251.349 C952.094,1243.453 961.527,1237.549 970.067,1230.565 C967.970,1230.929 963.738,1231.611 961.616,1231.965 C968.280,1225.883 975.058,1219.873 981.071,1213.117 C974.280,1210.836 970.041,1217.703 964.684,1220.509 C951.206,1228.387 935.049,1230.277 921.741,1238.674 C911.618,1243.860 904.099,1253.673 892.652,1256.227 C878.059,1260.189 864.593,1267.589 849.668,1270.487 C844.201,1271.209 838.664,1269.210 833.234,1270.428 C828.304,1271.893 824.054,1274.925 819.633,1277.436 C817.931,1276.843 814.510,1275.621 812.816,1275.003 C799.194,1279.988 785.785,1285.680 771.714,1289.388 C764.504,1291.401 758.092,1296.303 750.262,1295.781 C730.170,1296.084 710.265,1299.096 690.199,1299.777 C675.730,1300.439 661.293,1296.488 646.883,1298.930 C634.840,1301.114 622.489,1301.136 610.448,1299.008 C597.381,1294.587 584.448,1288.627 570.425,1288.267 C556.498,1288.852 547.197,1271.965 532.807,1277.849 C518.277,1273.691 503.039,1272.726 488.742,1267.665 C469.643,1260.684 450.191,1254.705 431.093,1247.725 C423.567,1244.993 418.582,1237.387 410.411,1236.197 C397.262,1232.510 384.989,1226.008 372.545,1220.406 C370.498,1220.192 368.442,1220.003 366.420,1219.798 C364.378,1216.748 363.422,1212.638 360.074,1210.707 C339.072,1207.598 320.483,1195.421 305.037,1181.323 C296.150,1171.830 284.748,1165.349 273.351,1159.380 C274.236,1162.782 275.112,1166.210 275.964,1169.628 C262.446,1162.821 254.601,1148.958 241.265,1141.823 C234.055,1132.913 225.596,1125.342 216.366,1118.527 C205.753,1105.225 199.705,1086.060 182.809,1079.184 C184.411,1083.315 186.105,1087.422 187.476,1091.635 C181.450,1088.171 177.381,1082.475 173.182,1077.126 C174.437,1076.215 177.008,1074.388 178.289,1073.486 C166.267,1058.227 155.959,1040.558 137.639,1032.060 C138.780,1030.112 141.028,1026.231 142.144,1024.274 C136.017,1017.508 129.027,1011.292 124.687,1003.110 C101.025,961.188 76.088,919.634 58.880,874.558 C56.416,859.459 45.241,847.333 44.630,831.692 C43.309,805.054 36.043,779.269 32.029,752.993 C31.096,744.067 25.090,736.242 25.615,727.135 C26.864,718.588 22.676,710.605 22.888,702.173 C24.268,687.634 24.435,670.474 13.721,659.148 C16.454,650.431 11.323,641.945 11.996,633.123 C10.767,614.862 13.577,596.726 14.560,578.544 C15.612,566.204 10.715,554.206 12.396,541.852 C13.020,527.136 20.285,513.906 22.524,499.496 C25.643,480.995 33.059,463.652 39.468,446.123 C44.572,432.012 46.727,416.632 55.047,403.834 C64.629,389.588 68.690,372.411 78.256,358.131 C79.975,355.411 82.966,353.971 85.598,352.279 C76.937,370.283 68.489,388.395 60.899,406.863 C58.708,408.438 56.543,410.023 54.386,411.584 C56.222,412.200 59.914,413.382 61.735,413.964 C53.785,434.338 47.273,455.261 41.624,476.372 C40.054,483.234 37.715,490.399 40.041,497.388 C46.424,477.920 52.857,458.470 59.661,439.163 C62.090,422.471 70.840,407.877 76.589,392.225 C90.865,363.456 104.683,334.398 121.232,306.809 C126.899,298.730 133.883,291.436 137.581,282.123 C140.710,272.961 149.959,268.207 154.405,259.831 C161.574,245.884 173.711,235.649 182.907,223.157 C189.071,214.814 197.089,208.085 202.725,199.341 C216.747,186.024 232.648,174.702 246.849,161.510 C255.090,151.745 266.652,145.689 275.141,136.162 C281.496,129.253 290.415,125.735 297.715,120.066 C307.854,110.232 320.904,104.292 333.212,97.698 C340.834,94.676 346.600,88.422 354.298,85.573 C357.052,84.753 360.905,82.165 362.043,86.545 C359.964,89.609 356.650,91.380 353.623,93.288 C336.744,103.160 320.272,113.754 304.258,125.005 C297.314,129.589 295.366,139.004 287.520,142.534 C279.880,146.342 275.756,154.840 267.317,157.322 C257.677,159.458 257.085,171.263 249.274,175.970 C240.180,182.770 231.684,190.308 224.482,199.136 C195.619,224.123 175.470,256.978 153.019,287.392 C148.307,296.092 144.737,305.369 139.165,313.571 C131.028,325.445 126.181,339.031 120.228,352.023 C116.982,358.814 119.787,366.553 117.673,373.578 C114.210,383.095 108.422,391.639 105.593,401.427 C111.178,406.567 114.924,396.534 119.269,393.850 C120.263,403.877 112.438,410.850 106.489,417.659 C103.430,420.916 106.538,425.111 107.067,428.632 C111.012,423.499 114.512,417.828 119.942,414.083 C113.054,431.827 106.493,450.347 106.571,469.615 C114.303,467.573 112.440,457.441 114.208,451.250 C115.095,429.825 134.179,411.574 128.303,389.583 C126.846,385.450 130.136,381.884 131.436,378.181 C133.796,382.258 133.063,387.001 133.114,391.476 C140.788,388.617 138.286,377.929 142.998,372.350 C151.798,360.673 158.073,347.433 165.000,334.642 C174.931,319.849 184.621,304.878 194.055,289.752 C197.413,284.083 201.771,278.540 208.372,276.633 C205.587,285.785 200.028,293.508 193.994,300.767 C188.200,320.772 172.490,335.460 163.714,353.986 C147.899,381.884 138.253,412.648 129.492,443.323 C124.430,460.373 117.365,476.942 114.418,494.545 C114.797,495.711 115.552,498.043 115.930,499.208 C123.007,483.496 127.014,466.610 133.397,450.632 C134.159,453.618 135.433,456.744 134.237,459.805 C124.034,492.996 113.735,526.433 109.363,560.998 C107.548,575.116 104.169,589.093 103.582,603.338 C108.308,606.420 107.800,597.345 108.595,594.669 C111.067,571.324 118.300,548.889 124.087,526.300 C124.953,504.781 131.663,484.161 139.060,464.115 C143.516,446.947 147.931,429.735 154.043,413.058 C156.813,405.433 162.977,399.841 168.659,394.321 C170.171,394.671 173.219,395.382 174.757,395.742 C174.283,390.368 172.625,385.195 171.470,379.901 C173.623,371.956 178.228,364.946 182.162,357.767 C183.571,360.687 184.845,363.670 186.102,366.619 C196.083,351.107 207.933,336.790 216.272,320.225 C222.609,306.897 233.849,297.001 241.216,284.322 C244.830,278.351 253.225,273.158 250.111,265.188 L247.970,265.221 C241.033,274.177 235.393,284.340 226.633,291.749 C225.950,291.828 224.575,292.012 223.892,292.092 C223.373,284.460 232.345,282.438 235.293,276.499 C241.358,265.818 247.399,254.902 256.451,246.355 C268.234,235.334 276.538,220.940 289.839,211.519 C306.372,199.728 318.421,182.736 335.687,171.849 C354.063,159.541 372.328,147.078 390.996,135.195 C399.662,129.962 410.093,128.356 418.467,122.473 C424.637,118.132 430.553,113.041 438.075,111.175 C486.400,97.194 532.172,71.767 583.339,69.596 C593.746,69.909 603.133,64.867 613.224,63.186 C636.246,61.080 659.637,62.463 682.545,59.093 L682.596,55.766 C671.658,52.383 659.841,54.795 648.551,54.713 C626.893,54.956 605.651,59.387 584.259,62.058 C571.614,64.778 558.796,67.659 545.753,66.596 C556.590,59.836 569.991,60.782 581.757,56.422 C594.601,51.763 608.407,52.466 621.750,50.665 C616.310,46.034 609.083,47.872 602.680,48.293 C588.951,49.692 575.185,50.820 561.564,53.053 C558.456,53.314 556.113,55.512 553.541,56.971 C536.947,59.857 519.372,58.027 503.688,64.920 C462.173,75.260 420.590,86.964 382.376,106.565 C372.731,109.012 364.118,113.583 355.425,118.295 C364.203,108.309 376.321,102.210 387.709,95.719 C400.172,89.610 412.870,83.478 426.614,80.922 C438.673,78.319 449.533,71.059 462.084,70.658 C460.520,68.217 458.922,65.790 457.297,63.353 C464.935,58.807 473.962,57.090 481.229,51.806 C493.834,50.377 505.325,44.435 517.736,42.023 C553.493,33.316 590.529,35.823 626.921,32.663 C643.237,30.949 659.909,31.950 675.854,27.568 C684.012,25.376 693.418,28.685 700.829,24.137 C686.663,23.041 672.424,24.217 658.355,21.824 C635.189,22.230 612.230,26.772 589.032,27.334 C571.473,28.065 553.830,26.265 536.333,28.467 C522.331,29.988 509.075,35.056 495.268,37.701 C479.817,41.308 463.800,43.052 449.101,49.299 C429.498,57.535 409.943,65.875 390.305,73.983 C386.002,75.517 380.134,78.328 376.999,73.159 C378.930,67.653 385.561,66.269 389.962,63.211 C415.334,48.184 443.651,39.047 472.111,31.838 C479.121,30.572 483.444,23.710 490.570,22.656 C511.165,18.063 531.602,12.246 552.712,10.318 C608.870,2.278 665.792,-2.038 722.419,2.814 C729.046,4.039 735.340,7.321 742.276,6.621 C769.254,5.969 795.630,12.095 821.951,16.952 C838.447,20.271 856.089,19.175 871.358,27.190 C887.349,35.252 904.431,40.526 921.343,46.246 C941.479,55.267 962.672,62.110 981.540,73.854 C996.833,83.296 1014.274,89.417 1027.835,101.461 C1043.284,112.722 1062.210,119.039 1075.929,132.676 C1078.582,136.356 1083.133,136.477 1087.201,137.264 C1088.218,139.582 1089.284,141.918 1090.368,144.205 C1094.804,145.444 1099.459,146.853 1101.856,151.201 C1108.743,161.180 1118.788,168.165 1129.093,174.171 C1139.496,184.754 1149.648,195.695 1161.492,204.729 C1187.867,222.602 1201.635,252.460 1221.212,276.618 C1240.346,298.593 1251.969,325.674 1266.516,350.665 C1288.114,388.109 1294.984,431.279 1308.012,471.920 C1311.392,483.284 1318.450,493.185 1321.277,504.735 C1324.086,519.002 1324.440,533.609 1325.092,548.101 C1327.159,556.806 1332.091,564.848 1331.696,574.060 ZM1248.876,584.150 C1248.268,574.894 1248.827,564.808 1243.716,556.643 C1243.508,565.955 1243.594,576.061 1248.876,584.150 ZM270.308,1157.764 C270.143,1151.430 263.813,1148.985 259.392,1145.850 C258.215,1152.721 265.507,1155.250 270.308,1157.764 ZM80.879,537.723 C80.266,551.222 74.986,565.721 80.413,578.632 C83.950,567.582 85.947,555.889 84.887,544.246 C84.671,541.469 83.336,539.314 80.879,537.723 ZM95.984,495.934 C88.610,505.065 80.306,518.863 87.919,530.139 C87.660,517.810 99.664,508.292 95.984,495.934 ZM100.530,681.340 C104.022,684.233 105.896,683.416 106.159,678.862 C102.632,675.984 100.759,676.801 100.530,681.340 ZM104.002,446.246 C105.978,441.667 109.592,436.067 105.601,431.507 C103.760,436.252 101.378,441.300 104.002,446.246 ZM103.702,624.949 C101.948,630.437 100.584,636.386 103.534,641.740 C106.085,636.245 109.690,629.704 103.702,624.949 ZM176.316,600.862 C176.662,596.908 170.298,596.038 170.901,600.553 C170.218,604.718 177.167,605.471 176.316,600.862 ZM126.310,675.206 C128.270,666.506 129.752,657.198 126.582,648.554 C123.804,656.799 120.895,667.464 126.310,675.206 ZM171.417,414.074 C163.526,440.314 151.148,465.156 146.408,492.287 C140.987,513.769 133.574,534.745 129.116,556.452 C127.277,575.839 127.057,595.362 124.782,614.697 C124.271,622.134 121.865,630.068 125.864,636.987 C127.721,631.453 129.222,625.812 130.307,620.069 C135.144,600.492 129.229,579.421 138.513,560.749 C140.515,541.907 145.188,523.573 150.153,505.294 C151.977,482.979 164.091,463.286 167.446,441.272 C169.490,425.141 178.060,411.019 184.267,396.251 C187.893,387.051 194.855,379.069 196.060,369.002 C184.540,381.856 178.657,398.677 171.417,414.074 ZM464.864,63.973 C465.631,65.458 466.407,66.918 467.193,68.352 C477.616,63.422 489.819,63.342 499.569,56.907 C502.880,55.816 506.127,54.445 508.316,51.536 C493.569,54.786 479.013,58.649 464.864,63.973 ZM1137.634,356.845 C1140.943,359.697 1142.466,355.709 1143.935,353.348 C1138.218,350.486 1134.746,344.194 1128.271,342.800 C1127.973,349.155 1132.084,354.215 1137.634,356.845 ZM1122.467,326.340 C1122.354,320.394 1116.536,318.685 1112.172,316.591 C1111.476,323.023 1117.597,324.678 1122.467,326.340 ZM856.979,155.742 C859.592,159.378 866.482,155.453 863.716,151.476 C861.080,147.973 854.120,151.784 856.979,155.742 ZM772.763,96.064 C774.312,99.664 781.232,97.964 780.434,93.886 C778.898,90.178 772.156,92.229 772.763,96.064 ZM492.560,154.337 C489.632,152.197 483.291,154.685 483.579,158.541 C486.426,160.592 492.613,157.989 492.560,154.337 ZM486.137,122.261 C478.460,123.417 472.468,128.705 465.612,131.876 C472.913,130.066 485.642,132.996 486.137,122.261 ZM416.994,154.200 C433.198,150.031 447.947,141.503 462.561,133.549 C458.990,132.497 454.995,130.176 451.557,132.865 C439.417,139.466 426.771,145.165 415.047,152.464 L416.994,154.200 ZM396.294,165.536 C389.110,165.772 381.633,168.337 378.519,175.377 C385.215,173.818 392.219,171.527 396.294,165.536 ZM352.362,194.985 C360.589,189.641 369.028,184.408 376.527,177.993 C373.445,177.894 370.052,177.564 367.511,179.686 C360.809,184.533 353.735,189.012 347.775,194.737 C348.938,194.813 351.225,194.920 352.362,194.985 ZM343.239,198.964 C337.436,201.232 332.071,204.659 328.743,210.029 C334.902,208.464 340.257,204.692 343.239,198.964 ZM231.612,310.817 C221.193,325.396 208.640,338.876 202.040,355.793 C208.952,353.296 214.411,347.691 216.827,340.697 C223.239,331.483 228.764,321.618 235.365,312.504 L231.612,310.817 ZM238.490,306.178 C244.407,303.018 248.550,297.592 250.190,291.067 C242.643,291.733 239.107,299.434 238.490,306.178 ZM242.601,376.415 C247.876,373.973 250.518,368.911 251.819,363.420 C245.759,365.023 244.596,371.416 242.601,376.415 ZM438.454,121.478 C405.505,135.911 375.547,156.110 345.131,175.057 C314.199,197.439 285.317,222.845 260.701,252.093 C257.690,255.370 253.645,257.939 252.113,262.320 C254.974,267.980 260.462,261.933 262.841,258.897 C269.434,248.986 279.400,242.207 287.101,233.259 C304.494,212.007 328.628,198.067 349.689,180.883 C360.841,171.294 374.600,165.652 386.291,156.808 C392.864,151.854 400.901,149.532 408.161,145.749 C428.639,133.734 450.409,124.057 472.193,114.640 C479.779,110.896 490.069,110.625 494.788,102.723 C475.725,107.986 457.344,115.553 438.454,121.478 ZM488.420,123.416 C498.545,122.685 508.097,118.104 515.913,111.752 C505.585,111.527 495.282,115.623 488.420,123.416 ZM527.968,95.783 C534.927,94.950 542.998,94.173 546.765,87.354 C539.969,88.506 532.168,89.613 527.968,95.783 ZM577.809,94.554 C574.075,96.533 580.151,101.576 582.721,99.381 C591.720,96.915 601.700,97.235 609.854,92.374 C599.139,89.673 588.434,93.332 577.809,94.554 ZM681.729,78.844 C677.585,82.340 673.493,87.559 667.493,87.000 C659.017,85.863 650.491,86.268 641.997,86.742 C641.003,85.483 638.997,82.930 638.013,81.645 C629.917,87.464 619.326,87.931 611.451,93.693 C638.297,92.196 665.385,87.244 692.290,90.422 C692.023,87.853 691.756,85.282 691.548,82.706 C694.896,84.637 698.207,86.667 701.581,88.608 C702.631,87.193 704.709,84.353 705.734,82.930 C719.440,84.416 733.189,85.268 746.989,85.316 C752.551,84.942 757.233,88.064 762.201,89.988 C770.602,89.762 779.152,88.771 787.155,92.110 C790.842,93.972 794.296,91.319 796.157,88.226 C766.155,81.567 735.586,77.727 704.933,75.444 C697.123,75.982 689.549,78.282 681.729,78.844 ZM748.663,57.892 C748.039,58.932 746.851,61.002 746.252,62.051 C749.466,62.626 753.052,66.464 756.155,63.761 C756.591,59.274 751.624,59.278 748.663,57.892 ZM735.113,57.487 C725.731,55.380 716.124,54.605 706.552,54.185 C706.988,55.345 707.803,57.671 708.215,58.822 C716.718,58.919 728.442,64.330 735.113,57.487 ZM699.298,52.523 C694.382,52.915 690.093,55.677 685.946,58.065 C690.391,58.685 695.001,59.763 699.524,58.766 C702.222,56.534 702.159,54.466 699.298,52.523 ZM937.382,93.343 C928.178,90.254 919.184,86.536 910.566,82.054 C892.189,73.108 872.198,68.171 853.613,59.770 C841.189,54.261 827.115,55.895 814.317,51.661 C796.976,46.177 779.121,42.480 760.911,41.940 C741.351,41.225 720.422,30.936 701.575,39.942 C691.413,37.651 680.964,36.925 670.711,35.167 C668.035,37.124 665.660,39.481 663.032,41.457 C656.471,43.407 648.612,40.804 643.027,45.624 C660.042,46.388 677.069,44.972 694.099,45.629 C706.473,43.912 719.135,43.299 731.520,45.418 C742.109,47.785 752.802,50.988 763.800,50.278 C775.903,49.197 787.450,55.222 799.565,53.067 C813.927,60.934 830.654,59.262 845.733,64.876 C870.848,72.224 895.638,80.725 919.469,91.583 C925.243,94.892 931.543,97.043 938.111,98.274 C942.951,105.144 949.597,110.775 957.760,113.323 C952.875,105.160 946.865,96.452 937.382,93.343 ZM821.592,75.863 C824.561,78.415 826.324,77.811 826.846,74.067 C823.807,71.545 822.079,72.133 821.592,75.863 ZM830.960,77.113 C838.989,80.461 847.283,83.855 856.145,83.834 C850.794,76.740 841.506,75.947 833.424,74.450 C832.799,75.119 831.584,76.443 830.960,77.113 ZM877.694,92.572 C887.892,97.147 898.138,101.598 908.256,106.312 C911.440,104.662 911.599,102.907 908.704,100.978 C899.155,95.886 889.063,89.252 877.694,92.572 ZM921.573,111.340 C941.671,119.865 959.322,133.385 979.914,140.764 C979.514,136.612 977.167,133.615 973.144,132.334 C954.935,123.397 937.680,112.410 918.951,104.606 C913.132,106.102 919.238,110.618 921.573,111.340 ZM995.523,126.635 C980.783,124.071 972.464,109.517 957.742,106.904 C964.706,122.332 982.763,126.389 996.556,133.442 C996.293,131.753 995.786,128.324 995.523,126.635 ZM997.093,146.898 C995.227,144.058 993.003,143.492 990.377,145.241 C989.462,148.752 990.645,151.303 993.924,152.895 C997.099,152.235 998.151,150.224 997.093,146.898 ZM1021.826,168.996 C1022.025,176.875 1033.010,177.238 1038.444,180.392 C1038.566,172.124 1029.146,167.365 1021.826,168.996 ZM998.539,176.704 C997.958,174.213 997.377,171.721 996.840,169.189 C962.504,148.163 926.543,129.836 888.765,115.895 C862.546,108.240 837.632,95.237 810.241,92.214 C806.736,91.954 797.142,91.071 800.291,97.466 C805.499,105.896 817.586,107.758 827.081,107.638 L823.023,103.847 C827.104,102.597 831.213,101.497 835.370,100.417 C837.508,104.553 838.599,109.425 841.902,112.815 C853.640,119.452 868.029,118.477 879.582,125.526 C889.245,129.869 897.334,137.667 907.970,139.686 C916.844,141.342 924.802,145.913 931.662,151.653 C937.377,152.218 942.331,154.847 946.903,158.182 C967.100,167.936 987.249,179.147 1003.366,194.977 C1007.727,196.783 1012.025,198.906 1015.638,202.074 C1023.447,208.602 1033.230,212.479 1040.170,220.094 C1047.941,228.056 1056.521,235.161 1065.110,242.244 C1067.157,242.230 1071.278,242.214 1073.325,242.202 C1075.751,252.718 1081.841,261.740 1091.012,267.597 C1091.092,257.725 1086.948,247.176 1079.008,240.995 C1066.105,229.826 1056.466,215.164 1042.039,205.684 C1027.338,196.553 1016.930,178.477 998.539,176.704 ZM1082.362,213.333 C1072.869,204.233 1063.181,194.603 1051.176,188.885 C1049.652,195.481 1056.587,198.867 1060.721,202.460 C1075.136,211.596 1082.658,228.684 1098.069,236.554 C1104.673,238.876 1106.576,247.122 1113.668,248.610 C1107.129,233.855 1091.733,226.019 1082.362,213.333 ZM1216.289,289.067 C1212.669,279.002 1206.314,270.305 1201.048,261.060 C1187.001,245.454 1175.081,227.850 1159.356,213.816 C1155.665,209.512 1153.556,216.822 1156.517,219.173 C1162.244,227.062 1169.579,233.637 1175.550,241.336 C1184.837,252.090 1191.229,265.000 1201.187,275.186 C1213.189,292.282 1223.003,310.869 1235.176,327.888 C1235.397,326.270 1235.832,322.975 1236.062,321.331 C1231.428,309.462 1221.317,300.720 1216.289,289.067 ZM1278.126,402.823 C1275.817,397.799 1273.386,392.501 1268.651,389.218 C1269.697,398.073 1273.834,406.264 1278.852,413.486 C1282.500,410.395 1279.403,406.319 1278.126,402.823 ZM807.066,96.961 C812.410,97.383 817.776,98.042 823.136,96.938 C822.181,99.213 821.263,101.472 820.377,103.717 C816.013,101.398 809.940,101.548 807.066,96.961 ZM136.453,258.396 C135.398,257.964 133.302,257.137 132.247,256.705 C128.043,246.758 145.773,253.159 136.453,258.396 ZM103.855,320.291 C100.413,326.184 97.999,332.952 92.630,337.429 C91.651,336.574 89.654,334.818 88.661,333.927 C96.312,309.353 115.677,291.408 128.867,269.942 C128.955,272.757 130.323,275.862 128.345,278.369 C121.061,292.840 111.442,305.994 103.855,320.291 ZM6.128,696.797 C-0.066,691.169 -1.749,680.566 5.254,674.784 C9.050,679.781 12.656,685.272 13.347,691.637 C15.439,695.300 8.842,700.614 6.128,696.797 ZM4.444,726.627 C4.860,722.191 6.817,721.376 10.282,724.118 C9.948,728.558 7.982,729.397 4.444,726.627 ZM8.291,733.941 C14.526,732.918 14.362,743.751 9.173,745.005 C5.874,745.844 4.116,744.577 3.885,741.169 C3.836,737.802 5.300,735.382 8.291,733.941 ZM10.315,759.258 C16.979,762.314 18.602,770.027 20.622,776.332 C22.351,783.177 25.446,790.601 21.772,797.400 C14.476,792.655 5.402,786.467 6.461,776.487 C7.032,770.830 4.958,763.031 10.315,759.258 ZM194.173,1103.896 C190.745,1102.246 187.756,1099.743 186.625,1096.020 C191.325,1091.884 195.278,1099.664 194.173,1103.896 ZM317.226,1198.377 C324.308,1208.288 336.246,1212.250 345.754,1219.229 C343.767,1220.938 342.162,1225.887 338.660,1223.614 C320.424,1214.523 300.303,1204.798 289.296,1186.805 C294.350,1189.473 299.159,1192.557 303.969,1195.642 C308.625,1191.546 313.973,1193.815 317.226,1198.377 ZM436.270,1256.313 C447.752,1261.094 459.159,1266.074 470.179,1271.842 C481.758,1278.079 494.952,1280.307 506.625,1286.296 C492.145,1289.592 478.119,1283.301 464.380,1279.672 C441.430,1272.896 417.515,1268.277 396.073,1257.253 C386.468,1250.152 377.234,1242.456 366.898,1236.381 C361.829,1232.715 354.962,1230.263 352.867,1223.788 C372.254,1229.715 389.493,1240.894 407.927,1249.095 C418.158,1246.078 427.140,1252.799 436.270,1256.313 ZM714.487,1305.504 C720.480,1304.670 726.527,1304.142 732.622,1304.227 C730.676,1311.855 715.081,1315.690 714.487,1305.504 ZM788.015,1295.668 C793.691,1289.720 802.440,1290.365 809.893,1288.755 C803.855,1293.941 796.103,1297.820 788.015,1295.668 ZM852.138,1282.298 L854.467,1284.153 C854.037,1285.577 853.201,1288.435 852.760,1289.886 C842.170,1298.525 827.032,1298.563 814.240,1302.191 C822.919,1290.608 837.406,1282.462 852.138,1282.298 ZM869.634,1287.532 C876.757,1285.597 885.138,1277.617 891.526,1284.966 C891.929,1282.423 892.784,1277.359 893.212,1274.827 C895.400,1276.456 899.764,1279.740 901.941,1281.394 C889.948,1289.470 875.813,1293.124 862.401,1298.078 C857.498,1293.680 865.717,1288.874 869.634,1287.532 ZM1185.806,965.828 C1186.857,975.338 1183.440,984.956 1175.735,990.868 C1171.987,983.591 1173.479,975.223 1175.191,967.620 C1176.044,963.009 1184.278,959.796 1185.806,965.828 ZM1177.413,513.736 C1170.212,484.512 1159.247,456.378 1149.637,427.966 C1164.749,451.555 1176.240,477.422 1184.402,504.203 C1182.397,513.170 1182.694,522.277 1183.310,531.366 C1179.511,526.227 1178.961,519.717 1177.413,513.736 ZM1180.264,682.774 C1178.696,676.699 1184.795,675.736 1189.226,674.761 C1190.353,678.199 1191.412,681.667 1192.505,685.121 C1188.981,689.224 1179.713,690.310 1180.264,682.774 ZM1184.754,641.585 C1185.998,633.122 1187.188,624.582 1189.658,616.331 C1192.535,623.957 1200.931,632.212 1195.604,640.592 C1194.846,646.291 1185.289,648.657 1184.754,641.585 ZM1199.096,713.714 C1197.774,708.555 1199.046,703.366 1200.127,698.303 C1208.703,701.037 1202.934,709.532 1199.096,713.714 ZM1210.136,537.948 C1215.317,551.503 1219.382,565.455 1223.466,579.358 C1228.222,595.587 1225.216,612.600 1223.152,629.007 C1221.727,627.015 1220.302,625.025 1218.922,622.993 C1214.536,620.212 1212.400,615.623 1213.393,610.497 C1214.846,596.582 1205.208,584.446 1206.039,570.603 C1206.693,559.674 1207.844,548.707 1210.136,537.948 ZM1217.747,666.498 C1221.023,669.138 1220.700,675.115 1216.016,675.938 C1211.418,679.062 1207.306,673.038 1207.551,668.903 C1207.619,664.191 1215.600,662.386 1217.747,666.498 ZM1246.965,827.641 C1250.883,835.067 1250.567,849.049 1239.085,848.949 C1236.124,842.882 1234.205,836.389 1232.741,829.816 C1237.281,828.257 1242.085,826.970 1246.965,827.641 ZM1246.654,772.050 C1244.790,768.756 1250.200,763.728 1252.693,767.602 C1258.397,771.539 1248.534,780.429 1246.654,772.050 Z"/>
</svg>