<?xml version="1.0" encoding="utf-8"?>
<!-- Generator: Adobe Illustrator 22.0.1, SVG Export Plug-In . SVG Version: 6.00 Build 0)  -->
<svg version="1.1" id="Layer_2_1_" xmlns="http://www.w3.org/2000/svg" xmlns:xlink="http://www.w3.org/1999/xlink" x="0px" y="0px"
	 viewBox="0 0 1920 857.5" style="enable-background:new 0 0 1920 857.5;" xml:space="preserve">
<style type="text/css">
	.st0{fill:#FFFFFF;}
</style>
<g id="Layer_1-2">
	<path class="st0" d="M0,1.8c14,0.3,28,0.7,42,1l-2,3c54.5-10.9,124.4-2,180-2c12.8,0,74.3-2.6,78-1c10.3,4.5,95.5,9.4,116,6
		c84.6-13.9,175.1-0.2,260,0c45.3-0.3,90.7-0.7,136-1c20.1,0,38.9-3,56,1v1l-6,1h112l-2-3c7.5,0.1,33.7,0.8,29,4
		c8.3,3.9,24.9-1.6,30-3c29,0.3,58,0.7,87,1c23.8,0,44.1,3.3,67-1c29.9-5.6,66.4,3,99-3c13.7-2.5,39.3-4.9,54-1h130
		c13.5,3.4,43.2-7.9,64-4c10.7,2,25.6,8,37,6c10.1-1.8,54.2-4.5,62,0v1l-14,1c17,1.9,45.5,9.4,64,2l-47-4c15.8-2.1,35.2-1.8,52-1v1
		c-1.1,2.8-0.9,1.4-1,4c37,0.3,74,0.7,111,1c11.1-1.6,32.4-3,42,1c-3.6,0.6-3,0.4-5,2c15.7,0.3,31.3,0.7,47,1c5.2-1.6,14-6.4,24-4
		c6.1,1.5,8.4,4.7,18,5v837c-15.2,0.3-46.8,4-55-2l2-1c-30.6,4-70.4,2-102,1c-52,0.3-104,0.7-156,1c-15.7-2.3-32.3-5.1-46-6
		c-31.4-2.1-83.3,0.5-113,5c-24.7,3.8-59.3,1.3-81-2c-14,1-28,2-42,3c-30.3-2-60.7-4-91-6c-10,0.7-20,1.3-30,2c-35-0.3-70-0.7-105-1
		c-18.4,0.3-40.8,4.1-58,0l2-3c-35.1,0.1-77.8-5.2-110,1l3,3c-17.3-1.3-34.7-2.7-52-4c-37.2,7.2-83.9-6.9-129,1
		c-41.9,7.3-91.6-2.7-136,5h-69c-13.3,0.7-26.7,1.3-40,2l-24-1c-22.7-3.6-52.9,0.1-70,4c-23,5.3-52.1-3.8-71-4l2-3
		c-17.9,2.6-56.7,6.1-71,0c5.5,0.2,10,0,13-2c-18.3-1-41.8-5.7-62-2v1c11.9-0.2,39.2-1.8,47,4c-11.8,0.8-43,5.6-52-1v-4
		c-30.6,0.2-64.8-5.1-94-1c-15.6,2.2-43.6,5.7-58,0l5-1l-1-2c-20.6,0.3-64.7,6.6-76,0v-25.5h1920"/>
</g>
</svg>
